<?xml version="1.0" encoding="UTF-8" standalone="no"?>
<!-- Created with Inkscape (http://www.inkscape.org/) -->

<svg
   xmlns:dc="http://purl.org/dc/elements/1.1/"
   xmlns:cc="http://creativecommons.org/ns#"
   xmlns:rdf="http://www.w3.org/1999/02/22-rdf-syntax-ns#"
   xmlns:svg="http://www.w3.org/2000/svg"
   xmlns="http://www.w3.org/2000/svg"
   xmlns:sodipodi="http://sodipodi.sourceforge.net/DTD/sodipodi-0.dtd"
   xmlns:inkscape="http://www.inkscape.org/namespaces/inkscape"
   width="297mm"
   height="210mm"
   viewBox="0 0 1052.3622 744.09448"
   id="svg2"
   version="1.1"
   inkscape:version="0.91 r13725"
   sodipodi:docname="logo_stencil.svg">
  <defs
     id="defs4" />
  <sodipodi:namedview
     id="base"
     pagecolor="#ffffff"
     bordercolor="#666666"
     borderopacity="1.0"
     inkscape:pageopacity="0.0"
     inkscape:pageshadow="2"
     inkscape:zoom="0.98994949"
     inkscape:cx="177.55605"
     inkscape:cy="179.49233"
     inkscape:document-units="mm"
     inkscape:current-layer="layer1"
     showgrid="false"
     fit-margin-top="0"
     fit-margin-left="0"
     fit-margin-right="0"
     fit-margin-bottom="0"
     units="mm"
     inkscape:window-width="2878"
     inkscape:window-height="1581"
     inkscape:window-x="0"
     inkscape:window-y="37"
     inkscape:window-maximized="1" />
  <metadata
     id="metadata7">
    <rdf:RDF>
      <cc:Work
         rdf:about="">
        <dc:format>image/svg+xml</dc:format>
        <dc:type
           rdf:resource="http://purl.org/dc/dcmitype/StillImage" />
        <dc:title></dc:title>
      </cc:Work>
    </rdf:RDF>
  </metadata>
  <g
     inkscape:label="Layer 1"
     inkscape:groupmode="layer"
     id="layer1"
     transform="translate(-22.903172,162.82388)">
    <g
       id="g4361">
      <path
         inkscape:connector-curvature="0"
         id="path4252"
         d="m 560.4739,444.25721 c -4.51665,-2.05063 -8.70331,-7.46616 -9.76592,-12.63243 -0.49741,-2.41839 7.04108,-50.96351 9.93771,-63.99516 0.32923,-1.48117 -4.07567,-8.55459 -15.46516,-24.83412 l -15.92551,-22.76305 -13.97242,28.51948 c -13.02155,26.57867 -14.26272,28.71103 -18.23836,31.33411 l -4.26594,2.81463 -38.84429,-0.17491 -38.84428,-0.17491 -4.46767,-2.61823 c -5.59279,-3.27759 -8.4643,-8.55014 -8.4643,-15.54177 0,-5.90164 1.70995,-9.72689 5.93868,-13.28513 4.62572,-3.89229 7.88277,-4.47498 31.56132,-5.64643 12.1,-0.59862 24.3265,-1.33458 27.16999,-1.63547 l 5.16999,-0.54707 9.58939,-28.60506 9.58938,-28.60506 -1.6747,-40.53046 -1.67469,-40.53046 -36.97495,-42.55252 c -20.33622,-23.40389 -37.83664,-43.90252 -38.88982,-45.55252 -2.77357,-4.3453 -2.10021,-13.48651 1.25823,-17.08132 4.99398,-5.34546 12.14933,-6.95266 17.73684,-3.98397 1.48519,0.7891 20.24818,19.0141 41.69553,40.5 l 38.99519,39.06529 15.60017,0 15.60017,0 38.68684,-39.43307 c 40.97418,-41.76455 41.68841,-42.35793 49.69221,-41.2844 9.99014,1.33996 15.84161,12.1868 11.30596,20.95778 -1.27195,2.45968 -61.9792,73.77282 -73.1859,85.97187 -2.49048,2.71102 -2.49246,2.72993 -4.59419,43.78636 l -2.10264,41.07417 19.27347,33.21365 c 10.60041,18.2675 19.72341,34.86985 20.27332,36.8941 0.68193,2.51021 0.65777,5.2129 -0.076,8.5 -3.88388,17.39895 -16.20888,68.28111 -17.06201,70.43825 -1.33891,3.38547 -6.62427,8.46548 -10.21689,9.81996 -4.20457,1.58518 -9.6739,1.24941 -14.36876,-0.88213 z M 517.65776,156.79852 c -10.75398,-3.40996 -18.59883,-10.21242 -23.1776,-20.09785 -2.34277,-5.05798 -2.7825,-7.33783 -2.80075,-14.52103 -0.0194,-7.61634 0.3234,-9.22192 3.22828,-15.12258 3.85969,-7.84013 10.14702,-13.98812 18.07492,-17.67433 4.73067,-2.19961 7.08975,-2.63876 14.17515,-2.63876 7.1011,0 9.44106,0.43751 14.21807,2.65841 25.36208,11.79117 29.16669,44.7769 7.117,61.70394 -8.03664,6.16954 -21.49471,8.65393 -30.83507,5.6922 z"
         style="fill:#000000" />
      <path
         sodipodi:nodetypes="csscsscscsscsscccssscscccsccccscccscccscscccscsscsscsscscccssccccsssscccssssssssscscccssssssscc"
         inkscape:connector-curvature="0"
         id="path4286"
         d="m 413.10129,6.81824 c -0.0175,0.0175 -0.21994,1.04915 -0.44916,2.29269 -1.15082,6.24311 -2.56133,10.11995 -4.52474,12.43615 -3.02879,3.57297 -5.5072,8.16052 -5.92874,10.97153 -0.0519,0.34598 -0.11804,0.60531 -0.14605,0.5773 -0.028,-0.028 -0.13989,-0.72953 -0.24938,-1.55968 -0.1756,-1.33133 -0.17596,-1.65174 -0.004,-2.71705 0.22907,-1.41756 0.8041,-3.21472 1.61894,-5.0552 0.32104,-0.72513 0.5689,-1.33155 0.54974,-1.3475 -0.0192,-0.016 -0.43099,0.1328 -0.91486,0.33067 -2.79202,1.14172 -5.10349,3.69105 -6.36688,7.02272 -1.24051,3.27131 -1.73225,6.77111 -1.73742,12.34935 -0.003,3.10764 -0.0708,4.06041 -0.28935,4.06041 -0.33464,0 -1.4846,-1.31719 -1.90827,-2.18521 -0.73674,-1.50944 -0.89116,-2.28156 -0.96309,-4.83475 l -0.0648,-2.29543 -0.39681,0.23147 c -0.58993,0.34438 -2.10532,2.00432 -2.61509,2.86447 -1.12397,1.89654 -1.5448,3.64813 -1.4467,6.01279 0.0567,1.36698 0.17615,2.04109 0.80739,4.56607 0.69084,2.76339 0.92048,4.16915 0.71509,4.37456 -0.16652,0.16651 -0.89318,-0.25138 -1.40951,-0.81154 -0.30425,-0.33008 -0.64807,-0.91515 -0.82531,-1.40123 l -0.30449,-0.83358 -0.26179,0.3169 c -0.69639,0.84397 -1.39266,2.96671 -1.7636,5.37485 -1.57836,10.24682 3.07735,19.42748 12.35073,24.35424 l 1.36955,0.72886 c 3.82687,2.39785 11.74708,4.13019 11.72828,1.50817 -0.45059,-1.29972 -1.34413,-2.75483 -2.61044,-3.4542 -4.80449,-1.53007 -6.94522,-5.43748 -9.38928,-10.6031 -0.66241,-1.40005 -1.33148,-3.33636 -1.46048,-4.22712 l -0.0882,-0.61038 1.06505,1.03198 c 0.79681,0.77154 1.34558,1.16733 2.17557,1.57209 0.61028,0.29761 1.2822,0.58071 1.49355,0.62966 l 0.38441,0.0896 -0.53459,-0.72335 c -1.02972,-1.39389 -1.85205,-3.38783 -2.29544,-5.56362 -0.30732,-1.50805 -0.36712,-3.60553 -0.10196,-3.59196 0.0915,0.005 0.73608,0.78874 1.43155,1.74294 1.95257,2.67891 3.86284,4.60686 4.98769,5.03453 l 0.37338,0.14329 -0.084,-0.70269 c -0.37762,-3.11536 -0.53516,-5.46518 -0.54286,-8.09051 -0.009,-3.01365 0.11857,-4.194 0.51255,-4.7328 0.16389,-0.22415 0.21004,-0.19248 0.59934,0.41472 1.42936,2.22939 3.26561,6.96678 4.07145,10.50721 0.19995,0.87849 0.409,1.6481 0.46569,1.70987 0.21161,0.23055 1.4016,-0.46324 2.137,-1.24554 0.77931,-0.82901 1.90356,-2.81826 2.32023,-4.10589 0.22584,-0.69788 0.23586,-0.70657 0.48086,-0.46156 0.40951,0.4095 0.80313,1.75402 0.89972,3.0739 0.17031,2.32725 -0.25515,5.79095 -1.1119,9.03846 -0.27385,1.03803 -0.37815,1.64006 -0.28383,1.63821 0.3136,-0.006 1.35599,-0.55925 1.91103,-1.01407 1.81246,-1.48518 3.66681,-5.29633 4.70248,-9.66123 l 0.30725,-1.29376 0.29486,0.49601 c 0.55307,0.92887 1.27504,2.86275 1.5955,4.27536 0.54384,2.39725 0.4125,5.12484 -0.35272,7.3341 -1.12162,3.23821 -0.82362,6.15244 -3.87211,7.70115 -0.75855,0.80649 -3.25703,1.08861 -3.25703,3.59545 -0.0413,3.09864 7.07459,0.5185 10.5227,-2.25538 l 0.001,0 c 2.74487,-2.20814 5.06575,-5.53371 6.3159,-9.04536 0.90583,-2.54448 1.21579,-4.3147 1.30203,-7.44983 0.0647,-2.35121 0.038,-2.81564 -0.28107,-4.92569 -0.19375,-1.28113 -0.41366,-2.86292 -0.48912,-3.51618 -0.41716,-3.61124 0.98498,-6.13283 4.61567,-8.2972 l 1.14359,-0.68063 -0.51393,-0.34032 c -1.53307,-1.01453 -3.72233,-0.64279 -6.78848,1.15185 -0.601,0.35177 -1.48846,0.94303 -1.97304,1.31443 -0.48457,0.37141 -0.90251,0.65442 -0.92726,0.62966 -0.15215,-0.15215 -0.28418,-4.31776 -0.18876,-5.95215 0.17778,-3.04567 0.72665,-5.2629 1.83111,-7.403 0.50054,-0.96989 0.85581,-1.43393 1.86969,-2.44149 1.39355,-1.38485 1.41541,-1.5553 0.17499,-1.41225 -2.82803,0.32613 -5.74201,1.9131 -8.47631,4.61705 -1.79372,1.7738 -1.69336,1.75657 -2.20726,0.38303 -0.5607,-1.49859 -0.70717,-2.40857 -0.70958,-4.40763 -0.001,-1.3673 0.0687,-2.25997 0.23974,-3.0615 0.63461,-2.9734 2.03453,-6.04248 4.08522,-8.95993 l 0.67099,-0.95619 -0.93415,-0.0386 c -1.64159,-0.0685 -3.56892,0.76518 -5.48646,2.37122 -1.07944,0.90409 -2.7022,2.65599 -3.47898,3.7573 -0.2969,0.42094 -0.57784,0.76606 -0.62415,0.76606 -0.27604,0 -0.68885,-0.48701 -0.81704,-0.96309 -0.19376,-0.71959 -0.0994,-1.43583 0.62414,-4.73831 0.84218,-3.84419 1.02805,-5.31863 0.93555,-7.40988 -0.14126,-3.19309 -0.89906,-5.26917 -2.73359,-7.48429 -0.25619,-0.30933 -0.47989,-0.54794 -0.49739,-0.53045 z"
         style="fill:#000000" />
      <text
         sodipodi:linespacing="125%"
         id="text4288"
         y="308.44913"
         x="176.22882"
         style="font-style:normal;font-weight:normal;font-size:121.95768738px;line-height:125%;font-family:sans-serif;text-align:start;letter-spacing:2.0326283px;word-spacing:0px;text-anchor:start;fill:#000000;fill-opacity:1;stroke:none;stroke-width:1px;stroke-linecap:butt;stroke-linejoin:miter;stroke-opacity:1"
         xml:space="preserve"><tspan
           style="font-style:normal;font-variant:normal;font-weight:normal;font-stretch:normal;font-family:'Boston Traffic';-inkscape-font-specification:'Boston Traffic'"
           y="308.44913"
           x="176.22882"
           id="tspan4290"
           sodipodi:role="line">Rule</tspan></text>
      <path
         style="fill:#000000"
         d="m 642.15892,-27.68138 c 0.0248,0.0248 0.31178,1.48722 0.63672,3.25 1.63134,8.84995 3.63081,14.34558 6.41406,17.62891 4.29346,5.06488 7.80675,11.56798 8.4043,15.55273 0.0736,0.49045 0.16733,0.85806 0.20703,0.81836 0.0397,-0.0397 0.19831,-1.03415 0.35352,-2.21094 0.24891,-1.88722 0.24942,-2.34143 0.006,-3.85156 -0.32472,-2.00946 -1.13985,-4.55703 -2.29493,-7.16602 -0.45509,-1.02791 -0.80644,-1.88754 -0.77929,-1.91015 0.0272,-0.0226 0.61095,0.18826 1.29687,0.46875 3.95783,1.61845 7.23446,5.23225 9.02539,9.95508 1.75849,4.63726 2.45556,9.5984 2.46289,17.50586 0.004,4.40524 0.10039,5.75585 0.41016,5.75585 0.47437,0 2.10451,-1.86719 2.70508,-3.09765 1.04437,-2.13972 1.26327,-3.23424 1.36523,-6.85352 l 0.0918,-3.2539 0.5625,0.32812 c 0.83626,0.48819 2.98441,2.84124 3.70703,4.06055 1.59329,2.68844 2.18983,5.17141 2.05078,8.52344 -0.0804,1.93777 -0.24971,2.89336 -1.14453,6.47265 -0.9793,3.91726 -1.30483,5.91 -1.01367,6.20117 0.23605,0.23605 1.26613,-0.35634 1.99805,-1.15039 0.4313,-0.46791 0.91868,-1.29728 1.16992,-1.98632 l 0.43164,-1.18165 0.37109,0.44922 c 0.98717,1.19638 1.97417,4.20548 2.5,7.61914 2.23741,14.52542 -4.3623,27.53949 -17.50781,34.52344 l -1.94141,1.0332 c -5.4248,3.39907 -16.65212,5.85476 -16.62547,2.1379 0.63873,-1.84241 1.90537,-3.90511 3.70044,-4.89651 6.81062,-2.16895 9.84522,-7.70791 13.3098,-15.03045 0.93901,-1.98465 1.88745,-4.72947 2.07031,-5.99218 l 0.125,-0.86524 -1.50976,1.46289 c -1.12952,1.0937 -1.90744,1.65475 -3.08399,2.22852 -0.86511,0.42188 -1.81758,0.82318 -2.11719,0.89257 l -0.54492,0.12696 0.75781,-1.02539 c 1.45969,-1.97591 2.62538,-4.80243 3.25391,-7.88672 0.43565,-2.13774 0.52042,-5.11104 0.14453,-5.0918 -0.12972,0.007 -1.04343,1.11808 -2.0293,2.47071 -2.76786,3.7975 -5.47578,6.53047 -7.07031,7.13671 l -0.52929,0.20313 0.11914,-0.9961 c 0.53529,-4.41619 0.75861,-7.74719 0.76953,-11.46874 0.0125,-4.272 -0.16808,-5.94521 -0.72657,-6.70899 -0.23232,-0.31774 -0.29774,-0.27285 -0.8496,0.58789 -2.02619,3.16027 -4.62917,9.87578 -5.77149,14.89453 -0.28345,1.24531 -0.57979,2.33627 -0.66015,2.42383 -0.29996,0.32682 -1.98684,-0.65667 -3.0293,-1.76562 -1.10472,-1.17517 -2.6984,-3.99503 -3.28906,-5.82032 -0.32013,-0.98928 -0.33434,-1.0016 -0.68164,-0.65429 -0.5805,0.58049 -1.13848,2.48643 -1.2754,4.35742 -0.24143,3.299 0.36169,8.20899 1.57618,12.8125 0.3882,1.47147 0.53605,2.32488 0.40234,2.32226 -0.44455,-0.009 -1.92219,-0.79278 -2.70898,-1.4375 -2.56927,-2.10533 -5.1979,-7.50783 -6.66602,-13.69531 l -0.43555,-1.83398 -0.41797,0.70312 c -0.78401,1.31672 -1.80745,4.05811 -2.26171,6.06055 -0.77092,3.39824 -0.58475,7.26474 0.5,10.39648 1.58996,4.59034 1.16752,8.72142 5.48892,10.9168 1.07529,1.14323 4.61701,1.54316 4.61701,5.09674 0.0586,4.39248 -10.02861,0.73499 -14.91648,-3.19713 l -0.002,0 c -3.89101,-3.13015 -7.18098,-7.84433 -8.95313,-12.82227 -1.28406,-3.60694 -1.72345,-6.11632 -1.8457,-10.56054 -0.0917,-3.33296 -0.0539,-3.99132 0.39844,-6.98243 0.27465,-1.81607 0.58638,-4.05834 0.69335,-4.98437 0.59134,-5.11912 -1.39627,-8.69362 -6.54296,-11.76172 l -1.6211,-0.96484 0.72852,-0.48242 c 2.17321,-1.43815 5.27661,-0.91119 9.62304,1.63281 0.85195,0.49865 2.10997,1.3368 2.79688,1.86328 0.68691,0.52649 1.27936,0.92767 1.31445,0.89258 0.21568,-0.21568 0.40283,-6.12066 0.26758,-8.4375 -0.25202,-4.3174 -1.03007,-7.46043 -2.5957,-10.49414 -0.70955,-1.37487 -1.21316,-2.03268 -2.65039,-3.46094 -1.97543,-1.96311 -2.00642,-2.20473 -0.24805,-2.00195 4.00888,0.46231 8.1396,2.71193 12.01562,6.54492 2.54269,2.51445 2.40042,2.49003 3.12891,0.54297 0.79482,-2.12434 1.00244,-3.41428 1.00586,-6.24805 0.002,-1.93823 -0.0974,-3.20364 -0.33984,-4.33984 -0.8996,-4.21496 -2.88406,-8.56554 -5.79102,-12.70118 l -0.95117,-1.35546 1.32422,-0.0547 c 2.32704,-0.0971 5.05913,1.08469 7.77734,3.36133 1.53017,1.2816 3.83052,3.76501 4.93164,5.32617 0.42087,0.59671 0.81912,1.08594 0.88477,1.08594 0.3913,0 0.97648,-0.69037 1.1582,-1.36524 0.27467,-1.02005 0.14085,-2.03536 -0.88476,-6.7168 -1.19383,-5.44935 -1.45731,-7.53945 -1.32618,-10.5039 0.20024,-4.52638 1.27446,-7.46933 3.875,-10.60938 0.36316,-0.43849 0.68028,-0.77674 0.70508,-0.75195 z"
         id="path4303"
         inkscape:connector-curvature="0"
         sodipodi:nodetypes="csscsscscsscsscccssscscccsccccscccscccscscccscsscsscsscscccssccccsssscccssssssssscscccssssssscc" />
      <g
         transform="translate(-2.1428573,0)"
         id="g4355">
        <text
           sodipodi:linespacing="125%"
           id="text4292"
           y="308.44913"
           x="614.46851"
           style="font-style:normal;font-weight:normal;font-size:121.95768738px;line-height:125%;font-family:sans-serif;text-align:start;letter-spacing:2.0326283px;word-spacing:0px;text-anchor:start;fill:#000000;fill-opacity:1;stroke:none;stroke-width:1px;stroke-linecap:butt;stroke-linejoin:miter;stroke-opacity:1"
           xml:space="preserve"><tspan
             style="font-style:normal;font-variant:normal;font-weight:normal;font-stretch:normal;font-family:'Boston Traffic';-inkscape-font-specification:'Boston Traffic'"
             y="308.44913"
             x="614.46851"
             id="tspan4294"
             sodipodi:role="line">Zero</tspan></text>
        <text
           xml:space="preserve"
           style="font-style:normal;font-weight:normal;font-size:60px;line-height:125%;font-family:sans-serif;text-align:start;letter-spacing:1px;word-spacing:0px;text-anchor:start;fill:#000000;fill-opacity:1;stroke:none;stroke-width:1px;stroke-linecap:butt;stroke-linejoin:miter;stroke-opacity:1"
           x="893.72681"
           y="246.47971"
           id="text4311"
           sodipodi:linespacing="125%"><tspan
             sodipodi:role="line"
             id="tspan4313"
             x="893.72681"
             y="246.47971">*</tspan></text>
      </g>
    </g>
  </g>
</svg>
