<?xml version="1.0" encoding="UTF-8" standalone="no"?>
<!-- Created with Inkscape (http://www.inkscape.org/) -->

<svg
   xmlns:dc="http://purl.org/dc/elements/1.1/"
   xmlns:cc="http://creativecommons.org/ns#"
   xmlns:rdf="http://www.w3.org/1999/02/22-rdf-syntax-ns#"
   xmlns:svg="http://www.w3.org/2000/svg"
   xmlns="http://www.w3.org/2000/svg"
   xmlns:sodipodi="http://sodipodi.sourceforge.net/DTD/sodipodi-0.dtd"
   xmlns:inkscape="http://www.inkscape.org/namespaces/inkscape"
   width="130.72406mm"
   height="130.72406mm"
   viewBox="0 0 463.19549 463.19549"
   id="svg2"
   version="1.1"
   inkscape:version="0.91 r13725"
   sodipodi:docname="patch.svg"
   inkscape:export-filename="/home/mouse/patch.png"
   inkscape:export-xdpi="200.04999"
   inkscape:export-ydpi="200.04999">
  <defs
     id="defs4" />
  <sodipodi:namedview
     id="base"
     pagecolor="#ffffff"
     bordercolor="#666666"
     borderopacity="1.0"
     inkscape:pageopacity="0.0"
     inkscape:pageshadow="2"
     inkscape:zoom="1.979899"
     inkscape:cx="259.77502"
     inkscape:cy="146.13471"
     inkscape:document-units="px"
     inkscape:current-layer="layer1"
     showgrid="false"
     inkscape:window-width="2878"
     inkscape:window-height="1581"
     inkscape:window-x="0"
     inkscape:window-y="37"
     inkscape:window-maximized="1"
     fit-margin-top="0"
     fit-margin-left="0"
     fit-margin-right="0"
     fit-margin-bottom="0" />
  <metadata
     id="metadata7">
    <rdf:RDF>
      <cc:Work
         rdf:about="">
        <dc:format>image/svg+xml</dc:format>
        <dc:type
           rdf:resource="http://purl.org/dc/dcmitype/StillImage" />
        <dc:title></dc:title>
      </cc:Work>
    </rdf:RDF>
  </metadata>
  <g
     inkscape:label="Layer 1"
     inkscape:groupmode="layer"
     id="layer1"
     transform="translate(-140.44951,-294.58339)">
    <circle
       style="opacity:1;fill:#000000;fill-opacity:1;fill-rule:nonzero;stroke:#000000;stroke-width:0.5521313;stroke-linecap:round;stroke-miterlimit:4;stroke-dasharray:none;stroke-dashoffset:0;stroke-opacity:1"
       id="path4920"
       cx="372.04724"
       cy="526.18109"
       r="227.18056" />
    <g
       id="g4959">
      <path
         sodipodi:nodetypes="cc"
         inkscape:connector-curvature="0"
         id="path4924"
         d="m 275.92495,525.02799 c 79.38345,-79.38344 108.31082,83.93374 192.24459,0"
         style="fill:none;fill-rule:evenodd;stroke:#a0a0a0;stroke-width:24;stroke-linecap:butt;stroke-linejoin:miter;stroke-miterlimit:4;stroke-dasharray:none;stroke-opacity:1" />
      <path
         inkscape:connector-curvature="0"
         id="path4947"
         d="m 374.35406,381.09675 0,-82.32743"
         style="fill:none;fill-rule:evenodd;stroke:#a0a0a0;stroke-width:17;stroke-linecap:butt;stroke-linejoin:miter;stroke-miterlimit:4;stroke-dasharray:none;stroke-opacity:1" />
      <circle
         style="opacity:1;fill:none;fill-opacity:1;fill-rule:nonzero;stroke:#a0a0a0;stroke-width:17;stroke-linecap:round;stroke-miterlimit:4;stroke-dasharray:none;stroke-dashoffset:0;stroke-opacity:1"
         id="circle4943"
         cx="372.04724"
         cy="526.18109"
         r="140.74254" />
      <path
         style="fill:none;fill-rule:evenodd;stroke:#a0a0a0;stroke-width:17;stroke-linecap:butt;stroke-linejoin:miter;stroke-miterlimit:4;stroke-dasharray:none;stroke-opacity:1"
         d="m 374.35406,753.57015 0,-82.32743"
         id="path4949"
         inkscape:connector-curvature="0" />
      <circle
         r="226.73277"
         cy="526.18109"
         cx="372.04724"
         id="circle4951"
         style="opacity:1;fill:none;fill-opacity:1;fill-rule:nonzero;stroke:#a0a0a0;stroke-width:9.72992134;stroke-linecap:round;stroke-miterlimit:4;stroke-dasharray:none;stroke-dashoffset:0;stroke-opacity:1" />
    </g>
    <path
       style="opacity:1;fill:none;fill-opacity:1;fill-rule:nonzero;stroke:none;stroke-width:0.51549292;stroke-linecap:round;stroke-miterlimit:4;stroke-dasharray:none;stroke-dashoffset:0;stroke-opacity:1"
       d="M 372.04724,316.17584 A 210.00526,210.00526 0 0 0 162.04198,526.1811 210.00526,210.00526 0 0 0 372.04724,736.18636 210.00526,210.00526 0 0 0 582.0525,526.1811 210.00526,210.00526 0 0 0 372.04724,316.17584 Z"
       id="path4140"
       inkscape:connector-curvature="0" />
    <path
       style="opacity:1;fill:none;fill-opacity:1;fill-rule:nonzero;stroke:none;stroke-width:0.40116161;stroke-linecap:round;stroke-miterlimit:4;stroke-dasharray:none;stroke-dashoffset:0;stroke-opacity:1"
       d="M 372.04724,691.24352 A 165.06242,165.06242 0 0 1 206.98482,526.1811 165.06242,165.06242 0 0 1 372.04724,361.11868 165.06242,165.06242 0 0 1 537.10966,526.1811 165.06242,165.06242 0 0 1 372.04724,691.24352 Z"
       id="path4146"
       inkscape:connector-curvature="0" />
    <g
       id="g4928"
       transform="translate(145.90613,-42.194173)">
      <path
         inkscape:connector-curvature="0"
         id="path3794"
         d="m 267.98036,468.34366 a 6.2215319,5.6112832 0 0 0 -5.72154,6.88046 c 1.62654,6.26514 1.43372,11.94986 0.24451,17.64212 -2.77305,13.2736 -11.77489,26.19709 -13.7904,41.85617 -1.15318,8.95935 0.48491,18.84374 7.13971,28.97725 1.65247,2.51643 3.60563,5.06726 5.91715,7.67443 2.29579,2.58916 4.88303,5.22129 7.87325,7.89479 a 6.2215319,5.6112832 0 0 0 7.1886,1.0586 c 3.98096,-1.79535 7.5224,-3.66024 10.70957,-5.64563 9.5793,-5.96675 15.81226,-13.30394 18.2894,-21.78799 0.82409,-2.82246 1.24162,-5.72693 1.32035,-8.73288 0.0781,-2.98186 -0.14096,-6.06286 -0.68462,-9.26219 -0.5402,-3.17914 -1.34644,-6.43493 -2.39621,-9.83561 -1.06264,-3.44205 -2.39058,-6.96264 -3.86327,-10.62928 a 6.2215319,5.6112832 0 0 0 -8.60677,-3.13152 c -0.22246,-7.56598 -1.63699,-15.14498 -6.8463,-23.11125 l -0.0489,-0.0441 -11.00298,-17.02473 a 6.2215319,5.6112832 0 0 0 -5.72155,-2.77865 z"
         style="display:inline;fill:#ff0000;fill-opacity:1;stroke:#000000;stroke-width:0;stroke-linecap:butt;stroke-linejoin:miter;stroke-miterlimit:4;stroke-opacity:1" />
      <path
         inkscape:connector-curvature="0"
         d="m 273.02391,576.13358 c -42.10007,-41.73752 3.84632,-65.17642 -5.30026,-104.23855 l 10.2584,17.55911 c 7.35533,12.43508 5.80269,23.34991 5.05347,37.2103 l 8.83378,-11.1895 c 10.71395,29.57653 9.07665,46.6975 -18.84539,60.65864 z m 0,0 c -42.10007,-41.73752 3.84632,-65.17642 -5.30026,-104.23855 l 10.2584,17.55911 c 7.35533,12.43508 5.80269,23.34991 5.05347,37.2103 l 8.83378,-11.1895 c 10.71395,29.57653 9.07665,46.6975 -18.84539,60.65864 z"
         style="display:inline;fill:#ffa300;fill-opacity:1;stroke:#000000;stroke-width:0;stroke-linecap:butt;stroke-linejoin:miter;stroke-miterlimit:4;stroke-dasharray:none;stroke-opacity:1"
         id="path3788" />
      <path
         id="path4198"
         style="display:inline;fill:#ffff00;fill-opacity:1;stroke:#000000;stroke-width:0;stroke-linecap:butt;stroke-linejoin:miter;stroke-miterlimit:4;stroke-dasharray:none;stroke-opacity:1"
         d="m 272.32576,570.87781 c -21.05003,-20.86876 1.92317,-32.58821 -2.65013,-52.11928 l 5.12921,8.77956 c 3.67767,6.21754 2.90134,11.67495 2.52673,18.60515 l 4.41689,-5.59475 c 5.35697,14.78826 4.53833,23.34875 -9.4227,30.32932 z m 0,0 c -21.05003,-20.86876 1.92317,-32.58821 -2.65013,-52.11928 l 5.12921,8.77956 c 3.67767,6.21754 2.90134,11.67495 2.52673,18.60515 l 4.41689,-5.59475 c 5.35697,14.78826 4.53833,23.34875 -9.4227,30.32932 z"
         inkscape:connector-curvature="0" />
    </g>
    <g
       id="g4933"
       transform="matrix(-0.83641852,-0.2313862,0.22411767,-0.86354504,507.69203,1104.4728)">
      <path
         inkscape:connector-curvature="0"
         id="path3804"
         d="m 357.74435,465.89938 a 6.1718263,6.1718263 0 0 0 -5.12642,9.16405 c 5.33467,9.58854 6.10845,14.87795 5.62545,17.91979 -0.48301,3.04184 -2.31139,5.22019 -5.67082,8.80111 -3.35943,3.58091 -7.97941,8.31747 -10.61578,15.65146 -0.86719,2.41234 -1.37988,5.14798 -1.72392,8.07525 a 6.1718263,6.1718263 0 0 0 -7.21329,6.07912 c 0,16.71579 6.4099,29.83159 20.18812,41.32886 a 6.1718263,6.1718263 0 0 0 0.72587,0.5444 c 4.15486,2.54226 9.53744,6.52378 16.78562,7.71246 7.24818,1.18853 15.88322,-1.47162 23.68134,-9.43625 a 6.1718263,6.1718263 0 0 0 0.72587,-0.86204 c 9.70413,-14.31768 11.78784,-26.65303 10.07137,-37.5635 -1.71646,-10.91048 -6.4116,-20.06901 -9.43624,-30.57706 a 6.1718263,6.1718263 0 0 0 -8.12061,-4.03763 c -1.29678,-3.88753 -3.18837,-7.53324 -5.67082,-10.88797 -4.79769,-6.48348 -11.34218,-12.36795 -19.73445,-20.23348 a 6.1718263,6.1718263 0 0 0 -4.49129,-1.67857 z"
         style="display:inline;fill:#ff0000;fill-opacity:1;stroke:#000000;stroke-width:0;stroke-linecap:butt;stroke-linejoin:miter;stroke-miterlimit:4;stroke-opacity:1" />
      <path
         inkscape:transform-center-y="-8.4632291"
         inkscape:connector-curvature="0"
         d="m 339.18735,531.57157 8.83376,14.13405 c -11.86393,-48.38674 32.69481,-32.84394 10.01161,-73.61475 16.83073,15.77435 25.32348,23.2721 25.32348,38.27964 l 6.47811,-5.88923 c 6.42203,22.31105 18.31486,36.15199 0.16566,62.92987 -13.69421,13.98684 -24.09621,6.12064 -32.84314,0.76869 -12.87124,-10.74047 -17.96948,-21.25767 -17.96948,-36.60827 z"
         style="display:inline;fill:#ffa300;fill-opacity:1;stroke:#000000;stroke-width:0;stroke-linecap:butt;stroke-linejoin:miter;stroke-miterlimit:4;stroke-dasharray:none;stroke-opacity:1"
         id="path3799" />
      <path
         id="path4200"
         style="display:inline;fill:#ffff00;fill-opacity:1;stroke:#000000;stroke-width:0;stroke-linecap:butt;stroke-linejoin:miter;stroke-miterlimit:4;stroke-dasharray:none;stroke-opacity:1"
         d="m 356.24301,550.85508 4.41687,7.06702 c -5.93195,-24.19337 16.34741,-16.42197 5.00582,-36.80738 8.41535,7.88718 12.66174,11.63605 12.66174,19.13982 l 3.23905,-2.94461 c 3.21101,11.15553 9.15743,18.07599 0.0829,31.46494 -6.8471,6.99341 -12.0481,3.06031 -16.42157,0.38434 -6.43562,-5.37024 -8.98474,-10.62884 -8.98474,-18.30413 z"
         inkscape:connector-curvature="0"
         inkscape:transform-center-y="-8.4632319" />
    </g>
    <path
       style="fill:#ffff00"
       d="m 365.12466,735.21683 c -1.03892,-0.69371 -1.05087,-1.6471 -0.11755,-9.37353 0.16947,-1.40297 0.38658,-3.9013 0.48247,-5.55185 0.20398,-3.51126 0.33808,-5.24668 0.53337,-6.9023 0.11512,-0.97596 0.74741,-8.97479 1.20363,-15.22648 0.12119,-1.66075 0.59603,-2.79468 1.28132,-3.05979 0.30149,-0.11665 2.64136,-0.34487 5.19972,-0.50717 l 4.65155,-0.29508 0.76027,0.84835 c 0.41814,0.46662 1.13796,1.92559 1.5996,3.24216 0.46163,1.3166 1.04723,2.93399 1.30133,3.59421 0.95251,2.47489 1.94494,5.33968 2.70299,7.8026 1.14893,3.73288 2.47895,5.62987 2.89306,4.12637 0.38589,-1.40107 1.70782,-7.56525 1.88246,-8.77792 0.0832,-0.5777 0.26955,-1.32044 0.41414,-1.65055 0.14458,-0.33011 0.33022,-1.07286 0.41254,-1.65055 0.55901,-3.92345 1.22847,-6.85693 1.72347,-7.55211 0.71316,-1.00152 1.20814,-1.1092 6.57976,-1.43145 3.34827,-0.20085 4.47558,-0.1737 4.93878,0.11905 0.63086,0.39865 0.98635,1.46419 1.80607,5.41336 0.27408,1.32044 0.6213,2.71101 0.7716,3.09016 0.1503,0.37911 0.27328,1.14767 0.27328,1.70784 0,0.56019 0.12012,1.09278 0.26694,1.1835 0.14682,0.0907 0.3402,0.60512 0.42973,1.14308 0.0895,0.53796 0.45504,2.19352 0.81225,3.67902 2.1093,8.77171 4.03091,17.26283 4.57479,20.21492 0.34729,1.88504 0.34179,1.91733 -0.44206,2.59157 -0.67744,0.5827 -1.27679,0.7143 -4.09059,0.89811 -5.07637,0.33161 -6.95286,-0.11983 -6.95286,-1.6727 0,-0.49756 -0.21356,-1.31762 -0.47457,-1.82239 -0.26379,-0.51011 -0.39659,-1.2284 -0.299,-1.61724 0.0966,-0.38475 0.0593,-0.7714 -0.0828,-0.85921 -0.1421,-0.0878 -0.35065,-0.8726 -0.46344,-1.74397 -0.35354,-2.73121 -0.45407,-3.33207 -0.89273,-5.33554 -1.49303,-6.81911 -1.63372,-6.94786 -2.68398,-2.45593 -0.41231,1.76339 -0.96376,4.21902 -1.22545,5.45693 -0.26169,1.23791 -0.68971,3.26359 -0.95116,4.5015 -0.26145,1.23791 -0.5455,2.8911 -0.63122,3.67379 -0.25013,2.28376 -1.12558,2.81794 -5.0574,3.08593 l -3.18312,0.21697 -0.88052,-0.84358 c -0.48429,-0.46398 -0.88052,-1.15778 -0.88052,-1.54179 0,-0.38398 -0.12867,-0.93265 -0.28593,-1.21928 -0.15726,-0.28659 -0.57126,-1.39888 -0.92,-2.47174 -0.34874,-1.07286 -0.75388,-2.22074 -0.90032,-2.55085 -0.14644,-0.33011 -0.39484,-1.07286 -0.55201,-1.65055 -0.15717,-0.57769 -0.64734,-1.99567 -1.08927,-3.15105 -0.44194,-1.15539 -0.87116,-2.37079 -0.95384,-2.7009 -0.14505,-0.5791 -0.23727,-0.83224 -0.95673,-2.62588 -0.34754,-0.86642 -0.87752,-1.08615 -1.08576,-0.45015 -0.11709,0.3576 -0.29749,2.11559 -0.62362,6.07703 -0.17216,2.09116 -0.36213,6.08 -0.46872,9.84154 -0.10347,3.65153 -0.41735,3.9531 -4.38823,4.21604 -3.79038,0.25101 -5.55153,0.2414 -5.96173,-0.0325 z m -14.0746,-0.82752 c -0.82527,-0.21214 -1.98286,-0.39866 -2.57241,-0.4145 -1.33567,-0.0359 -3.72546,-0.83176 -4.19445,-1.39688 -0.19354,-0.2332 -0.40456,-1.26996 -0.46892,-2.30389 -0.0644,-1.03394 -0.22125,-2.48339 -0.34864,-3.22104 -0.25997,-1.50533 0.0645,-1.34625 -4.71968,-2.31395 -1.48549,-0.30046 -2.90347,-0.51335 -3.15105,-0.47311 -0.24758,0.0403 -1.56095,-0.13855 -2.9186,-0.39739 -1.35765,-0.25881 -2.61043,-0.38284 -2.78395,-0.27561 -0.17353,0.10725 -0.87449,1.34427 -1.55771,2.74892 -1.58608,3.26091 -2.0853,3.61005 -4.54272,3.17703 -1.01836,-0.17943 -2.12166,-0.31618 -2.45177,-0.30385 -1.21252,0.0453 -5.02222,-0.94177 -5.57865,-1.44534 -0.31537,-0.28542 -0.5734,-0.79118 -0.5734,-1.12393 0,-0.72592 1.74812,-4.40367 2.09316,-4.40367 0.13342,0 0.3247,-0.32723 0.42508,-0.72717 0.10038,-0.39995 0.6552,-1.3464 1.23293,-2.10328 0.57774,-0.75689 1.05043,-1.56959 1.05043,-1.80598 0,-0.23642 0.13709,-0.51458 0.30465,-0.61814 0.16755,-0.10354 0.50504,-0.61794 0.74997,-1.14308 0.24492,-0.52515 1.12067,-2.08879 1.9461,-3.47474 0.82543,-1.38598 1.50078,-2.5868 1.50078,-2.66849 0,-0.0817 0.54018,-1.00384 1.2004,-2.0492 0.66022,-1.0454 1.2004,-1.98096 1.2004,-2.07907 0,-0.0981 0.37538,-0.74287 0.83417,-1.43282 0.45879,-0.68996 1.1569,-1.92971 1.55135,-2.75498 0.39446,-0.82528 0.81198,-1.56803 0.92782,-1.65055 0.11585,-0.0825 0.58829,-0.8928 1.04988,-1.8006 0.46158,-0.90781 1.00317,-1.85312 1.20352,-2.1007 0.20035,-0.24759 0.46329,-0.78777 0.58431,-1.2004 0.12102,-0.41264 0.45908,-1.02034 0.75125,-1.35045 0.29217,-0.33011 0.61563,-0.87969 0.7188,-1.22129 0.10317,-0.3416 0.66469,-0.84862 1.24782,-1.1267 1.14808,-0.54747 0.6124,-0.60884 7.18643,0.82309 1.15539,0.25163 2.88151,0.54681 3.83584,0.65593 2.82602,0.32314 2.83312,0.34031 4.26243,10.32212 0.0827,0.57769 0.27986,1.86062 0.43808,2.85095 0.15823,0.99033 0.4433,2.94848 0.63349,4.35145 0.19019,1.40297 0.7336,4.98166 1.20758,7.95265 0.47398,2.97099 1.01093,6.34711 1.19322,7.5025 0.18229,1.15538 0.39884,2.37079 0.48123,2.7009 0.0824,0.33011 0.32053,1.68056 0.52921,3.001 0.36293,2.29646 0.35211,2.42991 -0.24888,3.07083 -0.72006,0.7679 -1.87407,0.82888 -4.2295,0.22343 z m -9.18931,-18.1451 c 0.69794,-0.004 0.70925,-0.0463 0.5035,-1.87974 -0.11578,-1.03159 -0.41059,-3.0235 -0.65514,-4.42647 -0.40883,-2.3454 -0.57736,-3.86769 -0.67523,-6.09903 -0.0759,-1.73091 -1.31569,-0.61637 -2.77847,2.49783 -1.20022,2.55523 -1.61143,3.37387 -2.68799,5.35117 -1.32085,2.42604 -1.32718,3.23811 -0.0275,3.53311 0.44289,0.10053 1.61554,0.43412 2.60587,0.74131 0.99033,0.30718 2.07069,0.49717 2.4008,0.42221 0.33011,-0.075 0.92149,-0.13814 1.31419,-0.14039 z m 78.96869,12.22496 c -0.5145,-0.7925 -0.98407,-2.0414 -1.77713,-4.72657 -0.31686,-1.07286 -1.33094,-4.44742 -2.2535,-7.49902 -0.92257,-3.05157 -1.67739,-5.76372 -1.67739,-6.027 0,-0.26325 -0.0925,-0.57121 -0.20567,-0.68432 -0.34079,-0.34079 -1.03569,-2.38438 -1.1376,-3.34551 -0.0525,-0.49517 -0.3057,-1.57553 -0.56266,-2.4008 -0.25695,-0.82528 -0.72762,-2.3783 -1.04592,-3.45115 -0.31831,-1.07286 -0.93424,-2.72287 -1.36873,-3.66669 -1.05164,-2.28442 -1.30741,-4.19614 -0.6879,-5.14164 0.50642,-0.77291 2.65369,-1.61562 7.70938,-3.02564 1.56802,-0.43733 3.99883,-1.13933 5.4018,-1.56001 5.25808,-1.57666 7.11803,-1.80282 9.9033,-1.20418 2.48175,0.53343 5.79257,2.74616 7.05235,4.71331 1.49898,2.34066 1.85232,2.96355 2.20124,3.88042 0.70205,1.84483 1.22597,6.26605 0.94008,7.93302 -0.55466,3.23403 -1.64942,5.49669 -3.35312,6.93027 -1.74419,1.46764 -6.43324,3.45931 -9.17227,3.89593 -0.70476,0.11236 -1.48126,0.40417 -1.72558,0.64848 -0.48192,0.4819 -0.60639,2.50539 -0.18252,2.96718 0.14393,0.15681 0.63347,1.5005 1.08787,2.986 0.4544,1.48549 1.00594,3.2815 1.22564,3.99112 0.45881,1.48189 0.16632,2.48483 -0.88276,3.02705 -1.01015,0.52208 -7.56833,2.43498 -8.34809,2.43498 -0.39853,0 -0.89213,-0.29215 -1.14082,-0.67523 z m 9.05675,-25.83426 c 1.68299,-1.13987 1.82569,-4.23231 0.26433,-5.72819 -0.68947,-0.66055 -1.20655,-0.8319 -2.95183,-0.97823 -1.8462,-0.15476 -2.22999,-0.0962 -3.01057,0.45966 -1.02098,0.72699 -1.40261,2.23869 -0.80653,3.19481 0.20635,0.33098 0.53913,1.31176 0.73951,2.17947 0.23453,1.01566 0.62407,1.78203 1.09342,2.15121 0.72004,0.56638 0.74855,0.56542 2.29532,-0.0783 0.86143,-0.35847 1.93078,-0.89868 2.37635,-1.20046 z m -128.95283,20.48672 c -0.66022,-0.14333 -1.94315,-0.41954 -2.85095,-0.61382 -4.74322,-1.01509 -11.94201,-6.0228 -13.97128,-9.71886 -2.05364,-3.74042 -2.54707,-4.73873 -2.40994,-4.87588 0.0777,-0.0777 -0.12106,-0.80673 -0.44167,-1.62012 -1.00243,-2.5432 -0.73782,-8.61611 0.57344,-13.16055 0.57209,-1.9827 1.29135,-3.75173 1.71783,-4.22502 0.2348,-0.26058 0.42691,-0.60804 0.42691,-0.77213 0,-0.59114 3.5395,-5.08567 5.04531,-6.40666 2.27986,-2.00001 3.25125,-2.7009 3.74334,-2.7009 0.24253,0 0.60908,-0.20256 0.81456,-0.45015 0.20547,-0.24758 0.55504,-0.45015 0.77681,-0.45015 0.37519,0 1.98202,-0.6227 3.20089,-1.24043 0.28961,-0.14678 1.90895,-0.40874 3.59853,-0.58213 3.25544,-0.33407 6.60609,-0.063 9.22937,0.74668 2.5862,0.7982 6.49127,2.83507 7.96724,4.15566 0.81725,0.73122 1.80119,1.49618 2.18654,1.69986 0.77997,0.41231 1.55012,1.99137 1.55012,3.17827 0,0.42614 -0.23581,1.207 -0.52402,1.73524 -0.28822,0.5282 -0.72711,1.51466 -0.97533,2.19205 -2.21386,6.04188 -2.24468,6.10658 -3.07179,6.44948 -1.14329,0.47394 -1.56186,0.22627 -2.37432,-1.40492 -0.3889,-0.7808 -1.51736,-2.24226 -2.50769,-3.24772 -2.25738,-2.29183 -4.40981,-3.21074 -7.68229,-3.27967 -1.95214,-0.0411 -2.41913,0.0621 -3.85757,0.85244 -4.25218,2.33645 -6.95449,7.0311 -6.88065,11.95355 0.0165,1.10287 0.15034,2.07957 0.29732,2.17041 0.14698,0.0908 0.26724,0.48803 0.26724,0.88266 0,2.11723 4.17599,5.85501 7.68496,6.87856 0.54401,0.15866 4.8751,-0.38041 7.3685,-0.91717 0.62298,-0.13411 0.8782,-0.0234 1.16,0.50315 0.46537,0.86954 0.17145,3.08092 -0.54985,4.13688 -0.30045,0.43983 -0.91944,1.6775 -1.37553,2.75036 -0.77567,1.82458 -1.50396,3.47885 -1.97299,4.48148 -0.47314,1.01146 -3.56714,1.46305 -6.16304,0.89955 z M 475.7094,707.20487 c -0.57271,-0.57271 -0.6141,-0.84911 -0.43827,-2.92598 0.10678,-1.26144 0.3395,-3.30638 0.51713,-4.54429 0.17763,-1.23792 0.31793,-2.58837 0.31178,-3.001 -0.006,-0.41264 0.10548,-1.22291 0.248,-1.8006 0.14255,-0.5777 0.34262,-2.60337 0.44463,-4.5015 0.102,-1.89814 0.30724,-3.92381 0.45609,-4.5015 0.14885,-0.5777 0.33626,-1.86062 0.41645,-2.85096 0.0802,-0.99033 0.22207,-2.47582 0.31522,-3.3011 0.24188,-2.1425 0.25647,-7.13941 0.024,-8.19804 -0.30337,-1.38124 -2.19193,-2.54043 -4.3991,-2.70009 -1.76702,-0.12781 -1.80127,-0.11503 -2.96274,1.10593 -1.77698,1.868 -1.93814,3.75302 -0.55726,6.51799 0.95807,1.91833 0.55459,2.54869 -3.24846,5.07481 -4.89335,3.25039 -4.37734,3.01367 -5.69129,2.61064 -0.98272,-0.30143 -1.26912,-0.59567 -1.88164,-1.93325 -2.18558,-4.77267 -2.45963,-7.03068 -1.41159,-11.63104 0.2495,-1.09515 0.6795,-2.01505 2.24453,-4.8016 0.76174,-1.35627 4.35728,-4.38215 6.66872,-5.61211 0.99282,-0.52832 2.2584,-1.2407 2.81232,-1.58305 1.19575,-0.739 5.51293,-1.34787 7.96436,-1.12325 4.39541,0.40273 8.33303,3.32487 10.72296,7.9576 1.05939,2.05362 1.30019,2.84684 1.45318,4.78726 0.28284,3.58685 0.1827,6.0604 -0.32366,7.99427 -0.25449,0.97194 -0.38089,2.02502 -0.28086,2.34018 0.10002,0.31517 0.0366,0.74809 -0.14102,0.96206 -0.1776,0.21401 -0.38719,1.36123 -0.46576,2.54941 -0.11422,1.72693 -0.0535,2.19464 0.30265,2.3313 0.53271,0.2044 2.92835,-1.20748 6.06259,-3.57299 1.25748,-0.94907 2.54947,-1.72558 2.87106,-1.72558 0.62391,0 2.61243,1.92632 3.74012,3.62311 1.88028,2.82911 2.16744,3.35716 2.16744,3.98542 0,0.37375 -0.16881,0.88151 -0.37512,1.12838 -0.55564,0.66475 -3.39059,2.74777 -6.60974,4.85652 -1.56313,1.02394 -3.90583,2.59181 -5.20601,3.48416 -1.30019,0.89234 -2.83664,1.88787 -3.41433,2.2123 -0.57769,0.32441 -1.45549,0.92104 -1.95065,1.32585 -2.77506,2.26857 -8.79677,6.09317 -9.59357,6.09317 -0.0878,0 -0.44427,-0.28459 -0.79211,-0.63243 z M 236.6788,684.54089 c -1.60794,-1.08678 -2.92231,-2.21771 -5.29363,-4.55486 -2.24232,-2.20999 -2.44798,-2.86397 -1.35045,-4.29413 0.99631,-1.29823 2.863,-3.58916 3.7619,-4.61686 0.43311,-0.49516 1.51761,-1.84561 2.40998,-3.001 0.89238,-1.15538 2.24894,-2.7358 3.01458,-3.51201 0.76564,-0.77624 1.75253,-1.8566 2.19311,-2.4008 1.36332,-1.68407 4.72047,-5.73011 5.80107,-6.99149 0.5656,-0.66022 1.60727,-1.89246 2.31483,-2.73829 0.70755,-0.84583 1.89416,-2.25312 2.63691,-3.12731 0.74275,-0.87416 1.4855,-1.81852 1.65055,-2.09854 0.16506,-0.28003 0.7536,-1.02103 1.30788,-1.64668 1.70937,-1.92946 2.29083,-1.7193 7.48031,2.70381 2.42891,2.07021 4.76126,4.08238 5.18299,4.47146 0.42173,0.38908 1.0481,0.79671 1.39194,0.90585 0.34383,0.10912 0.98497,0.74212 1.42474,1.40666 0.52533,0.79383 1.25955,1.40543 2.14061,1.78311 0.73757,0.31615 1.41892,0.77779 1.51412,1.02589 0.0952,0.24809 0.83508,0.92665 1.64418,1.50791 1.32362,0.95096 1.47108,1.1727 1.47108,2.21222 0,1.14299 -0.58434,2.00683 -3.22607,4.7691 -0.37138,0.38833 -0.67523,0.82728 -0.67523,0.9755 0,0.45937 -1.29523,1.20382 -2.09245,1.20265 -1.05605,-0.003 -2.52915,-0.96596 -4.58161,-2.99941 -2.37878,-2.35674 -6.01269,-5.10218 -6.75333,-5.10218 -0.33335,0 -1.22974,0.64147 -1.99198,1.42548 -1.08238,1.11328 -1.38594,1.64341 -1.38607,2.42051 -2.2e-4,1.36471 0.35265,1.91617 2.01819,3.15421 6.43063,4.7799 6.95162,5.28419 6.97402,6.75033 0.0206,1.34591 -4.3975,6.65627 -5.53783,6.65627 -1.36096,0 -3.60742,-1.58836 -7.50589,-5.30708 -1.56832,-1.496 -2.58319,-2.191 -3.20305,-2.19344 -0.79656,-0.003 -2.1341,1.31306 -2.94151,2.89459 -0.40852,0.80019 -1.11657,1.86002 -1.57343,2.35518 -0.45687,0.49517 -1.6506,1.91314 -2.65273,3.15105 -1.77198,2.18887 -3.36375,3.60121 -4.05876,3.60121 -0.18794,0 -0.86698,-0.35502 -1.50897,-0.78891 z m 272.97413,-8.18703 c -0.74275,-0.12265 -1.82311,-0.44054 -2.4008,-0.70643 -0.57769,-0.26589 -1.81906,-0.82978 -2.75858,-1.25307 -0.93952,-0.42329 -1.78928,-0.90081 -1.88838,-1.06112 -0.0991,-0.16032 -0.65422,-0.51645 -1.23368,-0.79143 -2.27431,-1.07922 -11.82526,-11.08926 -11.82526,-12.39365 0,-0.17496 -0.38593,-1.09656 -0.85763,-2.04806 -2.08782,-4.21145 -2.59016,-8.18859 -1.48393,-11.7485 1.18794,-3.82288 1.48474,-4.30382 4.41993,-7.16218 1.56778,-1.52676 2.96982,-2.77593 3.11567,-2.77593 0.14585,0 0.66268,-0.28305 1.14851,-0.62901 2.16559,-1.542 7.96244,-1.93714 10.82854,-0.73807 0.61365,0.25674 1.36546,0.46678 1.67066,0.46678 0.64687,0 3.24264,1.29769 5.13414,2.5667 0.72507,0.48643 1.54696,1.02091 1.82641,1.1877 1.95755,1.16832 8.13298,7.53758 9.85742,10.16682 0.85399,1.30204 1.55268,2.48843 1.55268,2.63641 0,0.14801 0.22454,0.61178 0.49901,1.03066 1.47277,2.24772 2.42079,7.54194 1.87385,10.4644 -0.69395,3.70795 -3.62589,8.04838 -6.92036,10.24488 -3.61663,2.4113 -4.1882,2.60579 -7.90665,2.69069 -1.8156,0.0415 -3.9088,-0.0249 -4.65155,-0.14759 z m 6.95149,-11.76599 c 0.47353,-0.33719 0.98826,-1.10341 1.1871,-1.76705 0.29578,-0.98721 0.27334,-1.29034 -0.14251,-1.92502 -0.27147,-0.41432 -0.49358,-1.02337 -0.49358,-1.35348 0,-0.33011 -0.27009,-0.74476 -0.6002,-0.92143 -0.33011,-0.17667 -0.6002,-0.50711 -0.6002,-0.73431 0,-0.4256 -4.05897,-4.73687 -5.41257,-5.74899 -0.41858,-0.31297 -0.98337,-0.88988 -1.25511,-1.28203 -0.53121,-0.76657 -4.10366,-3.43062 -5.33632,-3.97938 -0.41264,-0.18372 -1.04657,-0.47104 -1.40876,-0.63852 -1.0833,-0.50093 -3.15045,-0.0643 -3.91753,0.82755 -1.79595,2.08792 -0.36268,5.13228 5.02859,10.68083 2.0944,2.1555 4.14519,4.1457 4.55732,4.42264 3.55754,2.39071 4.38989,2.88537 5.18441,3.08091 1.16991,0.28792 2.16336,0.0831 3.20936,-0.66172 z m -297.65951,5.58537 c -0.71869,-0.50338 -4.21793,-5.44117 -5.13209,-7.24192 -0.77698,-1.53048 -0.69329,-2.24397 0.39163,-3.33855 0.49516,-0.49958 1.21442,-1.32777 1.59835,-1.8404 0.38392,-0.51263 0.86867,-0.93208 1.0772,-0.93208 0.20854,0 0.53298,-0.33761 0.72099,-0.75025 0.18801,-0.41264 0.50301,-0.75025 0.7,-0.75025 0.19699,0 0.84135,-0.47905 1.43191,-1.06454 0.59056,-0.5855 2.66053,-2.63368 4.59992,-4.55156 1.9394,-1.91785 3.52618,-3.61485 3.52618,-3.77112 0,-0.41663 -1.337,-0.11475 -4.05135,0.91477 -1.32044,0.50081 -2.87346,1.07811 -3.45115,1.28293 -2.72275,0.96521 -3.23982,1.15466 -4.5015,1.64944 -0.74275,0.29127 -2.01843,0.8467 -2.83485,1.23425 -0.81642,0.38755 -1.65629,0.70463 -1.86639,0.70463 -0.21009,0 -0.92829,0.28477 -1.59599,0.63279 -1.17846,0.61425 -2.64922,0.63042 -3.4567,0.038 -0.34161,-0.25062 -3.4106,-4.06369 -4.11579,-5.11368 -0.60598,-0.90225 -0.2789,-2.41436 0.8072,-3.73171 1.88147,-2.28208 6.046,-7.55235 6.46954,-8.1873 0.25266,-0.37879 0.88875,-1.20751 1.41353,-1.84163 0.52478,-0.63414 1.42825,-1.76065 2.0077,-2.5034 0.57946,-0.74275 1.32758,-1.6757 1.6625,-2.07321 0.84535,-1.00336 0.79818,-1.82809 -0.10456,-1.82809 -0.39243,0 -0.88223,0.20329 -1.08845,0.45177 -0.20622,0.24848 -1.33687,0.92113 -2.51257,1.49477 -1.17569,0.57364 -2.34019,1.17087 -2.58777,1.32716 -0.24759,0.15632 -0.65272,0.36294 -0.9003,0.45921 -0.24759,0.0962 -0.85529,0.44388 -1.35045,0.77252 -0.49517,0.32864 -1.31619,0.792 -1.8245,1.0297 -0.5083,0.23771 -1.09878,0.64255 -1.31217,0.89967 -0.21338,0.25713 -0.70234,0.4675 -1.08657,0.4675 -0.38422,0 -0.80659,0.16881 -0.93858,0.37513 -0.32791,0.51254 -1.91048,1.5962 -2.69452,1.84504 -0.35327,0.11215 -0.80133,0.39547 -0.99569,0.62967 -0.4644,0.55957 -2.03065,0.27093 -2.92389,-0.53883 -0.36972,-0.33515 -1.24147,-1.49867 -1.93722,-2.58557 -0.69575,-1.0869 -1.70994,-2.483 -2.25376,-3.10244 -0.69639,-0.79322 -0.98876,-1.4228 -0.98876,-2.12921 0,-1.32392 0.7615,-1.95776 4.2014,-3.49706 0.74275,-0.33236 1.90749,-0.92074 2.58832,-1.30754 0.68082,-0.3868 1.49109,-0.78809 1.8006,-0.89177 0.3095,-0.10369 1.50805,-0.72252 2.66343,-1.37518 1.15539,-0.65266 3.2068,-1.74613 4.5587,-2.42994 1.35189,-0.6838 2.6066,-1.42234 2.78823,-1.6412 0.18164,-0.21885 0.69608,-0.48892 1.14321,-0.60016 0.44713,-0.11123 1.42067,-0.57213 2.16342,-1.02421 0.74274,-0.45208 2.26054,-1.26265 3.37288,-1.80127 1.11234,-0.53861 2.09939,-1.10381 2.19344,-1.25598 0.094,-0.15218 0.3713,-0.27668 0.6161,-0.27668 0.24481,0 0.60822,-0.14224 0.80757,-0.31608 0.19935,-0.17384 0.79631,-0.54521 1.32656,-0.82527 0.53026,-0.28006 2.08328,-1.09788 3.45115,-1.81736 1.36788,-0.71949 2.70025,-1.496 2.96083,-1.72558 1.11079,-0.97863 2.95526,-0.29813 4.25409,1.56952 0.53571,0.77034 1.88558,2.62391 2.9997,4.11905 2.7455,3.68444 2.73529,3.89782 -0.37512,7.84093 -0.74275,0.94159 -1.79255,2.27382 -2.33289,2.96054 -0.54034,0.68672 -1.06252,1.48493 -1.16038,1.77377 -0.0979,0.28885 -0.27698,0.52518 -0.39804,0.52518 -0.12106,0 -1.28696,1.35945 -2.59088,3.02099 -5.02183,6.39918 -5.52682,7.38291 -3.64619,7.10282 0.97227,-0.14479 2.26833,-0.56836 3.97633,-1.29946 0.49516,-0.21196 1.71057,-0.67636 2.7009,-1.03201 0.99033,-0.35562 2.18292,-0.83641 2.65019,-1.06842 0.46728,-0.23201 1.07698,-0.42182 1.3549,-0.42182 0.27791,0 1.00923,-0.27009 1.62514,-0.6002 0.61591,-0.33011 1.36187,-0.6002 1.65768,-0.6002 0.2958,0 1.07281,-0.28092 1.72666,-0.6243 1.71403,-0.90012 4.34357,-1.76056 5.40638,-1.76912 1.14203,-0.009 1.97219,0.83686 5.06261,5.15959 1.26469,1.76897 2.42868,3.29621 2.58666,3.39383 0.15797,0.0976 0.28723,0.62364 0.28723,1.16889 0,1.24695 -0.40242,1.72966 -6.69965,8.03629 -2.75234,2.75645 -5.00425,5.14876 -5.00425,5.31621 0,0.16749 -0.29323,0.46144 -0.65161,0.65323 -0.35839,0.1918 -0.99985,0.76514 -1.42548,1.27408 -0.42562,0.50894 -1.02675,1.13326 -1.33584,1.38739 -0.30909,0.25412 -0.71422,0.64299 -0.9003,0.86414 -0.18608,0.22114 -3.38341,3.49598 -7.10518,7.27742 -5.82059,5.91392 -6.89186,6.87535 -7.6608,6.87535 -0.49167,0 -1.18412,-0.20325 -1.53878,-0.45165 z m 324.12311,-26.38518 c -0.52049,-0.23042 -1.46017,-0.9036 -2.08819,-1.49594 -0.62802,-0.59237 -1.23596,-1.07703 -1.35102,-1.07703 -0.11505,0 -0.77491,-0.47266 -1.46638,-1.05035 -0.69146,-0.57769 -1.51217,-1.05035 -1.82379,-1.05035 -0.31166,0 -0.94034,-0.33626 -1.39709,-0.74728 -0.92383,-0.83128 -3.00409,-2.25372 -3.296,-2.25372 -0.10344,0 -0.43601,-0.22432 -0.73896,-0.49853 -0.30299,-0.2742 -0.7971,-0.64557 -1.09801,-0.82527 -0.53733,-0.32093 -3.54031,-2.50899 -8.21509,-5.98583 -2.90227,-2.15853 -3.94709,-2.34165 -4.87275,-0.85402 -1.32338,2.12678 -3.20549,4.59624 -3.62614,4.75767 -1.07832,0.41377 -1.83511,-0.18679 -2.97744,-2.36284 -0.63051,-1.20109 -1.59681,-2.9941 -2.14734,-3.98443 -0.5505,-0.99033 -1.0047,-2.2088 -1.00936,-2.70774 -0.0102,-1.09288 1.37293,-3.49782 4.22943,-7.35431 1.15788,-1.56324 2.36386,-3.33885 2.67993,-3.94581 0.31606,-0.60695 0.85003,-1.19096 1.18662,-1.29779 0.71007,-0.22536 2.39909,0.0846 2.39909,0.44022 0,0.23073 2.10911,1.71199 9.97833,7.008 1.93939,1.30523 3.52617,2.47835 3.52617,2.60691 0,0.12859 0.31658,0.31324 0.7035,0.41036 0.38692,0.0971 1.38532,0.71946 2.21867,1.38298 0.83338,0.66355 1.64497,1.20643 1.80354,1.20643 0.1586,0 0.64134,0.32714 1.07274,0.72696 0.43142,0.39982 1.04639,0.81009 1.36656,0.91174 0.32018,0.10161 0.65626,0.37791 0.74686,0.614 0.0906,0.23609 0.67517,0.64251 1.29904,0.90318 0.62391,0.2607 1.40627,0.72645 1.73866,1.03505 0.58178,0.54018 5.89304,4.22345 7.86178,5.45203 1.34346,0.83836 1.57304,2.09011 0.61416,3.34834 -0.40379,0.52986 -1.08345,1.63858 -1.5104,2.46385 -0.42693,0.82528 -1.29464,2.17573 -1.92821,3.001 -1.28223,1.67015 -2.20837,1.96203 -3.87891,1.22252 z m 3.84002,-21.35035 c -0.8843,-0.23828 -1.96467,-0.61811 -2.4008,-0.84403 -1.41518,-0.73308 -3.55388,-1.68569 -3.78453,-1.68569 -0.56524,0 -5.03178,-4.42688 -6.7723,-6.71216 -1.35387,-1.77762 -2.55739,-3.52455 -3.51669,-5.10459 -0.28822,-0.4747 -0.80454,-1.21745 -1.14734,-1.65055 -0.34284,-0.4331 -0.92845,-1.42817 -1.30139,-2.21127 -0.37296,-0.78309 -0.80244,-1.50065 -0.95441,-1.59458 -0.15197,-0.0939 -1.03984,-1.33017 -1.97303,-2.7472 -2.4631,-3.74018 -2.47136,-4.31702 -0.13319,-9.31741 1.00885,-2.15757 1.83427,-4.04832 1.83427,-4.20168 0,-0.51537 1.09102,-1.27222 1.82422,-1.26549 0.86066,0.008 1.82146,0.75077 2.32019,1.79393 0.326,0.68181 0.91282,1.72525 2.95353,5.25175 0.38206,0.66022 1.19917,2.17947 1.81581,3.37612 0.68675,1.33267 1.30796,2.17573 1.60326,2.17573 0.59633,0 1.54873,-1.00818 2.28226,-2.41593 1.56112,-2.99605 3.61921,-5.37517 4.65656,-5.38293 0.27507,-0.002 0.54943,-0.15153 0.60963,-0.33215 0.13399,-0.40196 2.0061,-0.82938 5.1923,-1.18543 2.09628,-0.23426 2.6482,-0.18753 4.35145,0.36848 1.07285,0.35022 2.4233,0.85372 3.001,1.11888 1.77218,0.81345 5.4018,3.38296 5.4018,3.82409 0,0.22916 0.30385,0.55912 0.67522,0.73324 1.17156,0.54929 2.29529,2.70822 3.53011,6.78214 1.1893,3.92371 -1.5234,12.26282 -5.48586,16.86395 -1.64815,1.91385 -5.63711,4.23386 -7.2795,4.23386 -0.3892,0 -0.78206,0.1204 -0.87299,0.26754 -0.26535,0.42932 -4.67475,0.33425 -6.42958,-0.13862 z m 6.05647,-11.21252 c 1.17147,-0.44539 2.89134,-2.1123 3.39422,-3.28969 0.64744,-1.51585 0.59609,-3.5919 -0.12373,-5.00227 -0.71853,-1.40787 -1.29661,-1.95032 -2.98059,-2.79688 -2.54587,-1.27986 -5.62205,-0.4539 -7.50098,2.01404 -0.87179,1.14508 -0.98864,1.51793 -0.9875,3.15105 0,1.55314 0.14596,2.07038 0.89705,3.20259 1.43568,2.16412 2.78487,3.00116 4.83747,3.00116 0.9502,0 2.05901,-0.126 2.46406,-0.28 z m -369.00797,6.27731 c -0.42295,-0.3327 -0.92789,-1.1092 -1.12209,-1.72558 -0.3082,-0.97822 -3.15626,-8.03529 -4.35817,-10.79891 -0.2333,-0.53643 -0.54003,-0.97532 -0.68163,-0.97532 -0.1416,0 -0.42554,-0.57394 -0.63098,-1.27543 -0.20544,-0.70148 -0.56238,-1.57139 -0.7932,-1.93313 -0.41563,-0.6514 -0.59164,-1.08577 -1.99244,-4.91735 -1.18836,-3.25049 -0.75066,-3.72682 5.76506,-6.27376 1.40297,-0.54841 3.22608,-1.30616 4.05135,-1.68389 0.82528,-0.37773 2.24325,-0.98246 3.15105,-1.34384 0.90781,-0.36138 2.48964,-1.04073 3.51519,-1.50965 1.02555,-0.46893 2.24095,-0.93513 2.7009,-1.03599 0.83322,-0.18272 3.02648,-1.00463 4.73756,-1.77537 0.49517,-0.22304 2.58837,-1.11373 4.65155,-1.9793 3.8767,-1.6264 7.6493,-3.32022 9.06467,-4.06983 1.69405,-0.89721 2.98049,0.004 4.19539,2.93865 0.5012,1.21074 2.09771,5.1048 3.54779,8.65349 1.45009,3.54868 3.12316,7.63184 3.71794,9.07368 0.59478,1.44184 1.08142,2.96998 1.08142,3.39585 0,1.16406 -0.53267,1.93527 -1.33669,1.93527 -0.39346,0 -1.09769,0.19847 -1.56497,0.44105 -0.46727,0.24258 -1.96223,0.86679 -3.32211,1.38713 -2.35572,0.90139 -2.50811,0.92276 -3.22608,0.45233 -0.41445,-0.27156 -0.75355,-0.68594 -0.75355,-0.92083 0,-0.2349 -0.54447,-1.47924 -1.20993,-2.76521 -0.66546,-1.28596 -1.39456,-2.94753 -1.62022,-3.69237 -0.7013,-2.3148 -1.5925,-4.11594 -2.27205,-4.59191 -0.72814,-0.51001 -1.37976,-0.39439 -3.67573,0.65221 -1.27196,0.57982 -1.42539,0.75403 -1.4247,1.61762 3e-4,0.54878 0.77051,2.62723 1.77857,4.80037 0.97778,2.1079 2.00443,4.51492 2.28145,5.34895 0.49608,1.49354 0.49356,1.52716 -0.16705,2.23035 -0.69683,0.74174 -6.76034,3.44311 -7.72843,3.44311 -1.09684,0 -2.15799,-1.40748 -3.07866,-4.08346 -0.30716,-0.89278 -0.76795,-1.92229 -1.02396,-2.28781 -0.25603,-0.36552 -0.4655,-1.01545 -0.4655,-1.44429 0,-0.42885 -0.37137,-1.51292 -0.82527,-2.40906 -0.78165,-1.54321 -0.88369,-1.62762 -1.93034,-1.5969 -1.38524,0.0406 -3.71685,1.11505 -4.14141,1.90836 -0.25266,0.4721 -0.16803,0.90352 0.39828,2.03025 0.39551,0.78692 0.81639,1.76837 0.93528,2.18101 0.11889,0.41264 0.94665,2.32328 1.83946,4.24587 0.89282,1.9226 1.6233,3.7691 1.6233,4.10335 0,0.76202 -1.39518,2.45438 -2.02339,2.45438 -0.25825,0 -1.16595,0.32945 -2.01712,0.73212 -1.71103,0.80944 -4.02802,1.65754 -4.54689,1.66431 -0.18406,0.002 -0.6807,-0.26783 -1.10365,-0.60052 z m 17.19355,-95.47716 c -1.55794,-0.31726 -11.50663,-1.59679 -14.42948,-1.85581 -1.08643,-0.0963 -2.16679,-0.24008 -2.4008,-0.31957 -0.23401,-0.0795 -1.43831,-0.22795 -2.67622,-0.32992 -2.0369,-0.16778 -3.14158,-0.27865 -5.4018,-0.54213 -0.41264,-0.0481 -1.15538,-0.17506 -1.65055,-0.28212 -0.49516,-0.10707 -2.18323,-0.27462 -3.75125,-0.37235 -2.96535,-0.18482 -6.1526,-0.85567 -6.86546,-1.44503 -0.49153,-0.40637 -0.28314,-4.64794 0.42646,-8.68 0.2399,-1.36317 0.43636,-3.66501 0.43659,-5.11521 5e-4,-3.21531 1.24118,-9.05154 2.3422,-11.01782 1.67055,-2.9834 4.73161,-5.31146 8.05445,-6.12577 1.78738,-0.43802 2.54383,-0.4646 5.37027,-0.1887 1.80941,0.17663 3.83002,0.55354 4.49024,0.83758 3.07241,1.3218 5.07628,3.43317 6.2878,6.6251 0.45896,1.2092 1.01574,2.26811 1.23729,2.35313 0.53331,0.20465 2.3155,-0.39768 3.18474,-1.07635 0.38168,-0.298 1.03159,-0.64596 1.44422,-0.77323 0.41264,-0.12727 1.24235,-0.6185 1.84379,-1.09163 0.60144,-0.47313 1.36351,-0.86023 1.69347,-0.86023 0.32996,0 0.6803,-0.20946 0.77854,-0.46546 0.0982,-0.256 0.75415,-0.7246 1.45759,-1.04132 0.70343,-0.31672 1.88667,-0.98448 2.62942,-1.48391 0.74274,-0.49942 1.52596,-0.90862 1.74047,-0.90933 0.21452,-6e-4 0.77991,-0.2029 1.25642,-0.44931 1.05225,-0.54414 1.53477,-0.39007 2.17551,0.69462 0.50528,0.85537 0.42999,2.34261 -0.35214,6.95581 -0.15391,0.9078 -0.37297,2.52557 -0.48681,3.59503 -0.18397,1.72838 -0.32757,2.05495 -1.29204,2.93838 -0.59679,0.54664 -1.42397,1.06711 -1.83817,1.1566 -0.4142,0.0895 -1.19199,0.354 -1.72842,0.5878 -0.53643,0.2338 -1.41422,0.61556 -1.95065,0.84836 -0.53643,0.2328 -2.25825,0.92179 -3.82628,1.53109 -3.0909,1.20105 -3.69474,1.46449 -4.73455,2.0655 -1.4219,0.82186 0.25752,1.25694 5.93495,1.53755 5.21505,0.25776 6.25005,0.42861 7.11764,1.17487 l 0.79594,0.68464 -0.38041,4.31922 c -0.2706,3.07248 -0.55422,4.68736 -0.98256,5.59463 l -0.60215,1.27543 -1.9989,-0.0376 c -1.0994,-0.0207 -2.60661,-0.16132 -3.34936,-0.31258 z M 184.55486,507.0025 c 1.05653,-0.8246 0.62445,-5.40211 -0.64973,-6.88343 -0.90596,-1.05324 -1.52354,-1.34351 -3.39677,-1.59651 -3.25745,-0.43994 -5.66883,1.91963 -5.8271,5.70191 -0.0845,2.01988 0.37345,2.53282 2.29311,2.56835 0.66994,0.0124 2.29843,0.18779 3.61887,0.38976 2.42763,0.37132 3.3063,0.33137 3.96162,-0.18008 z m 389.12402,13.19875 c -0.076,-0.12296 -0.56956,-0.21214 -1.09674,-0.19816 -1.71384,0.0454 -8.14202,-0.63729 -8.85865,-0.94087 -0.38377,-0.16256 -0.79932,-0.23279 -0.92347,-0.15606 -0.12415,0.0767 -1.56574,-0.0478 -3.20357,-0.2768 -2.96241,-0.41416 -6.17033,-0.77914 -7.02921,-0.79976 -0.24759,-0.006 -1.53051,-0.18694 -2.85095,-0.40222 -1.32044,-0.21527 -3.8863,-0.56008 -5.7019,-0.76624 -1.81561,-0.20615 -3.59688,-0.40996 -3.95841,-0.4529 -1.38803,-0.16487 -1.91725,-1.11053 -2.53741,-4.53401 -0.94273,-5.20434 -0.97001,-5.82713 -0.30169,-6.88993 0.33263,-0.52898 0.95945,-1.02747 1.44219,-1.14696 0.4696,-0.11624 1.66408,-0.59221 2.65441,-1.05771 2.51388,-1.18164 4.12473,-1.88861 6.90231,-3.02928 1.32044,-0.54227 2.52909,-1.09778 2.68589,-1.23446 0.1568,-0.13668 0.49442,-0.25301 0.75025,-0.2585 0.4741,-0.0102 1.81561,-0.9862 1.81561,-1.32097 0,-0.10142 -0.37075,-0.32536 -0.8239,-0.49765 -0.79988,-0.3041 -1.55644,-0.4018 -5.32815,-0.68801 -5.51656,-0.41861 -10.27888,-1.05838 -11.44186,-1.5371 -0.85204,-0.35074 -0.98232,-0.58921 -1.41629,-2.59275 -0.26289,-1.21357 -0.63672,-3.38192 -0.83077,-4.81857 -0.49615,-3.67315 -0.65473,-3.48245 5.13606,-6.17671 1.40297,-0.65275 2.84252,-1.27706 3.19898,-1.38736 0.35646,-0.11029 0.81189,-0.39788 1.01206,-0.63907 0.2002,-0.24119 0.53901,-0.43852 0.75298,-0.43852 0.21397,0 1.64917,-0.58937 3.18934,-1.30971 5.4948,-2.56993 6.13072,-2.84996 6.92406,-3.04907 0.44181,-0.11089 0.96038,-0.39093 1.15241,-0.62232 0.19204,-0.23139 0.51447,-0.42071 0.71646,-0.42071 0.20203,0 0.75944,-0.18758 1.2387,-0.41686 2.31344,-1.10676 6.21213,-2.9311 8.37387,-3.91845 1.32044,-0.6031 2.75825,-1.29176 3.19513,-1.53036 0.98829,-0.53973 2.56289,-0.27237 2.97943,0.50591 0.16568,0.30962 0.4301,1.94608 0.58759,3.63658 0.15749,1.6905 0.42122,3.64003 0.5861,4.3323 0.45858,1.92536 -0.13673,3.42818 -1.4963,3.7774 -0.57769,0.14838 -1.20079,0.39395 -1.38466,0.54571 -0.18387,0.15176 -1.19671,0.5527 -2.25075,0.89098 -1.05404,0.33828 -2.52414,0.89901 -3.26689,1.24607 -0.74275,0.34705 -1.6167,0.61531 -1.9421,0.59611 -0.3254,-0.0192 -0.79806,0.13754 -1.05035,0.34829 -0.25229,0.21075 -1.06641,0.56622 -1.80915,0.78993 -0.74275,0.22371 -1.56671,0.58807 -1.831,0.8097 -0.26433,0.22163 -1.0746,0.57438 -1.8006,0.7839 -0.93055,0.26853 -1.34598,0.55856 -1.40792,0.98291 -0.0934,0.6398 -0.71253,0.55337 12.39197,1.72991 5.19776,0.46666 6.08216,0.61107 6.94608,1.13423 1.0812,0.65471 1.17171,0.92217 1.60428,4.74084 0.17475,1.54253 0.3723,2.89294 0.43904,3.00092 0.0667,0.10798 -0.0778,0.60741 -0.3211,1.10985 -0.32414,0.66933 -0.90009,1.1004 -2.15457,1.6126 -0.94165,0.38448 -2.65745,1.12777 -3.81283,1.65176 -1.15539,0.52398 -2.57336,1.12499 -3.15105,1.33558 -1.13264,0.41289 -3.47111,1.45023 -4.2014,1.86373 -0.24759,0.14019 -0.65272,0.33141 -0.9003,0.42493 -0.24759,0.0935 -0.68465,0.29524 -0.97125,0.44825 -0.28662,0.153 -0.8268,0.28243 -1.2004,0.28762 -0.37362,0.005 -0.90816,0.32453 -1.18785,0.70965 -0.48965,0.67417 -0.4822,0.71223 0.20043,1.02327 0.38995,0.17767 1.90174,0.40942 3.3595,0.515 1.4578,0.10558 3.25822,0.24309 4.00097,0.30558 0.74275,0.0625 3.17356,0.26681 5.4018,0.45404 5.73146,0.48159 6.00281,0.55498 6.62849,1.79283 0.28974,0.57318 0.6053,1.64985 0.70127,2.3926 0.096,0.74275 0.30835,2.16072 0.47197,3.15105 0.41015,2.48249 0.375,4.21651 -0.0933,4.60519 -0.43335,0.35966 -4.67829,0.33614 -4.90286,-0.0272 z M 202.05039,481.87399 c -0.41263,-0.13073 -1.76898,-0.46196 -3.01411,-0.73605 -1.24512,-0.2741 -2.64477,-0.69598 -3.11033,-0.93751 -0.46555,-0.24154 -0.98834,-0.43915 -1.16174,-0.43915 -0.17341,0 -1.33962,-0.38561 -2.59158,-0.85691 -1.25196,-0.4713 -2.74894,-1.0211 -3.32664,-1.22178 -2.88939,-1.00374 -10.05523,-3.68286 -10.3347,-3.86388 -0.17537,-0.11359 -1.12912,-0.47728 -2.11945,-0.80821 -1.67039,-0.55816 -1.80745,-0.67295 -1.89541,-1.58731 -0.0521,-0.54209 0.18419,-1.79179 0.52518,-2.77712 0.34099,-0.98531 0.61998,-1.94496 0.61998,-2.13255 0,-0.18758 0.25472,-0.89603 0.56605,-1.57433 0.31133,-0.67829 0.71448,-1.60663 0.89588,-2.06296 0.18141,-0.45633 0.67555,-0.98722 1.0981,-1.17974 0.79845,-0.3638 1.76947,-0.11782 6.14287,1.55613 3.28166,1.25608 5.87655,2.14807 7.10724,2.44312 0.6904,0.16552 1.41593,0.49451 1.61227,0.73109 0.19634,0.23658 0.61237,0.43014 0.92451,0.43014 0.31214,0 0.80202,0.12189 1.08863,0.27086 0.28661,0.14896 1.12881,0.43302 1.87155,0.63123 0.74275,0.19821 1.92837,0.56167 2.63472,0.8077 0.70635,0.24602 2.17222,0.63309 3.25749,0.86016 3.0447,0.63703 4.41058,-0.12104 5.98224,-3.3202 1.41054,-2.87118 0.35397,-5.99891 -2.49466,-7.38485 -0.70057,-0.34085 -1.35,-0.74309 -1.44318,-0.89386 -0.0932,-0.15078 -0.43302,-0.27414 -0.75519,-0.27414 -0.32216,0 -1.15823,-0.25245 -1.85791,-0.56099 -0.69968,-0.30855 -1.87986,-0.73801 -2.62261,-0.95436 -0.74274,-0.21635 -1.48549,-0.4861 -1.65055,-0.59946 -0.16505,-0.11335 -1.24541,-0.51088 -2.4008,-0.88338 -1.15538,-0.37251 -2.22899,-0.79562 -2.38579,-0.94025 -0.1568,-0.14462 -0.58773,-0.26296 -0.95762,-0.26296 -0.36988,0 -0.74635,-0.11947 -0.8366,-0.2655 -0.0903,-0.14602 -0.53712,-0.33335 -0.99304,-0.41628 -0.45592,-0.0829 -1.57169,-0.44529 -2.4795,-0.80523 -0.9078,-0.35995 -2.28573,-0.85121 -3.06207,-1.0917 -0.77634,-0.24049 -1.62037,-0.6461 -1.87562,-0.90136 -0.68581,-0.6858 -0.56769,-2.59401 0.28614,-4.62263 0.41264,-0.98038 0.75025,-1.9385 0.75025,-2.12915 0,-0.19066 0.34857,-1.12336 0.7746,-2.07267 1.15608,-2.5761 1.5744,-2.67339 5.64558,-1.31294 1.83319,0.61259 3.51541,1.25399 3.73825,1.42532 0.39957,0.30721 1.96508,0.8846 8.74642,3.2259 1.89733,0.65506 3.74945,1.38743 4.11582,1.62748 0.36636,0.24006 0.82037,0.43646 1.0089,0.43646 0.70924,0 6.13942,2.6705 7.58035,3.72793 3.35199,2.45984 5.14914,6.67048 4.8132,11.27707 -0.0662,0.90781 -0.24193,2.05569 -0.39052,2.55085 -0.14858,0.49517 -0.35465,1.40399 -0.45793,2.01962 -0.21938,1.3076 -1.63271,5.00787 -2.90085,7.59472 -1.43788,2.93311 -4.90659,6.61128 -7.01526,7.43888 -2.10502,0.82616 -6.23026,1.26537 -7.65256,0.81475 z m 326.89825,-12.09104 c -0.33854,-0.37137 -1.51331,-2.83595 -2.6106,-5.47683 -1.09731,-2.64088 -2.20168,-5.13921 -2.45419,-5.55185 -0.25247,-0.41263 -0.66007,-1.2229 -0.90576,-1.8006 -0.24566,-0.57769 -0.79292,-1.79309 -1.21612,-2.7009 -1.68122,-3.60646 -2.23584,-5.32741 -2.00863,-6.23263 0.20088,-0.80045 1.16298,-1.3373 5.54612,-3.09474 1.71036,-0.68577 3.44734,-1.4251 3.85997,-1.64294 1.43604,-0.75812 5.86954,-2.61418 8.55285,-3.58062 1.4855,-0.53502 3.17356,-1.1822 3.75125,-1.43818 0.5777,-0.25598 1.83056,-0.8145 2.78412,-1.24115 0.9536,-0.42666 1.80946,-0.77574 1.90195,-0.77574 0.15341,0 5.38946,-2.45193 7.41727,-3.47335 2.0137,-1.01432 3.18274,-0.28679 4.38911,2.7315 1.31435,3.28844 3.39855,8.31443 5.38713,12.99102 1.00482,2.36308 1.90944,4.62508 2.01025,5.02667 0.2908,1.15865 -0.10162,2.23066 -0.81657,2.23066 -0.34275,0 -0.98163,0.19074 -1.41975,0.42387 -0.43811,0.23312 -1.82298,0.85637 -3.07752,1.38499 -2.72866,1.14977 -3.21813,1.01346 -4.01957,-1.11948 -0.29752,-0.79179 -0.77459,-1.77724 -1.06011,-2.18988 -0.28554,-0.41263 -0.77188,-1.49299 -1.08075,-2.4008 -0.30889,-0.9078 -0.89922,-2.32577 -1.31185,-3.15105 -0.92746,-1.85492 -1.60659,-2.00061 -3.9013,-0.83698 -1.46131,0.74101 -1.64356,0.93533 -1.5896,1.6947 0.0335,0.47174 0.87743,2.58126 1.87535,4.68781 2.14509,4.52805 2.40215,5.49377 1.67594,6.29622 -0.6685,0.73867 -5.84853,3.0132 -6.8623,3.0132 -1.39519,0 -2.3117,-1.56816 -4.28312,-7.32839 -0.91194,-2.66462 -1.66762,-3.5067 -2.93341,-3.26884 -0.51546,0.0969 -1.13978,0.34418 -1.38737,0.54958 -0.24758,0.2054 -0.74709,0.46386 -1.11001,0.57436 -0.95548,0.29089 -1.13218,1.21689 -0.44856,2.35046 0.32201,0.53393 0.74806,1.47931 0.94679,2.10085 0.19873,0.62153 0.8657,2.17455 1.48213,3.45115 1.97814,4.09652 2.00407,4.1963 1.32612,5.10433 -0.60759,0.81381 -5.94589,3.30593 -7.17083,3.34761 -0.3426,0.0116 -0.89991,-0.28266 -1.23843,-0.65403 z M 223.0574,448.40082 c -0.5593,-0.41264 -1.13812,-0.75025 -1.28627,-0.75025 -0.14815,0 -0.62833,-0.28026 -1.06707,-0.6228 -0.43874,-0.34254 -1.96298,-1.27754 -3.38719,-2.07776 -1.42421,-0.80022 -3.29169,-1.98644 -4.14996,-2.63604 -0.85827,-0.6496 -2.9611,-1.87731 -4.67297,-2.72826 -1.71186,-0.85094 -3.19597,-1.68227 -3.29803,-1.8474 -0.10206,-0.16513 -0.66089,-0.49884 -1.24185,-0.74158 -0.58097,-0.24274 -1.57024,-0.8484 -2.19839,-1.3459 -0.62816,-0.49751 -1.25771,-0.90547 -1.39901,-0.90658 -0.14131,-0.001 -1.19815,-0.60881 -2.34854,-1.35045 -1.15039,-0.74164 -2.18744,-1.34843 -2.30455,-1.34843 -0.11711,0 -1.03275,-0.54454 -2.03476,-1.21009 -2.31876,-1.54016 -2.36253,-2.111 -0.42166,-5.4989 0.77009,-1.34424 1.75924,-3.11929 2.19811,-3.94456 0.68257,-1.28352 0.9424,-1.51459 1.79687,-1.59797 0.66257,-0.0647 1.28513,0.11413 1.84891,0.53096 0.46749,0.34563 1.15579,0.76054 1.52955,0.92202 0.37375,0.16149 0.94839,0.46274 1.27696,0.66945 0.32858,0.20671 1.28787,0.81474 2.13177,1.35117 0.84389,0.53642 1.60708,0.97532 1.69599,0.97532 0.21284,0 5.16988,3.11477 6.35432,3.99277 1.1991,0.88885 5.15846,3.20963 5.47578,3.20963 0.13477,0 0.92845,0.47069 1.76374,1.04597 0.83528,0.57528 1.93821,1.12987 2.45095,1.23242 0.88674,0.17734 0.99953,0.0843 2.31018,-1.90511 0.75785,-1.15035 1.37792,-2.19861 1.37792,-2.32946 0,-0.13086 0.3131,-0.6558 0.69579,-1.16654 0.38269,-0.51075 1.12572,-1.68831 1.65118,-2.61682 1.24554,-2.20088 2.20363,-2.47215 4.22628,-1.1966 0.75867,0.47843 1.67077,0.957 2.0269,1.06349 0.35613,0.10648 0.72326,0.39102 0.81586,0.63233 0.0926,0.24129 0.41914,0.43872 0.72566,0.43872 0.77493,0 1.86306,1.24112 1.85871,2.12004 -0.004,0.78108 -0.25136,1.23904 -3.55755,6.58286 -1.17436,1.89813 -2.38626,3.94097 -2.69311,4.53965 -1.27789,2.49317 -4.40846,7.57134 -5.17036,8.38696 -1.0034,1.07414 -1.65929,1.10225 -2.98016,0.12774 z m 294.99833,-3.58501 c -0.41264,-0.22546 -1.15538,-1.05909 -1.65055,-1.8525 -0.49516,-0.79341 -1.74433,-2.72866 -2.77592,-4.30056 -1.11782,-1.70325 -1.87563,-3.18145 -1.87563,-3.65855 0,-0.44032 0.62034,-1.99517 1.37854,-3.45522 4.37717,-8.42914 5.21451,-10.30721 4.59537,-10.30721 -0.1496,0 -0.27201,0.10792 -0.27201,0.23981 0,0.1319 -0.50642,0.422 -1.12537,0.64467 -1.10074,0.39599 -2.93144,1.7141 -4.72097,3.39911 -2.07369,1.95259 -4.2908,2.76457 -5.30667,1.94349 -0.97523,-0.78824 -4.54969,-6.42526 -4.75562,-7.49978 -0.2023,-1.05545 -0.14129,-1.18302 1.01944,-2.13102 0.67907,-0.5546 1.84234,-1.33664 2.58509,-1.73787 0.74275,-0.40122 1.94402,-1.13033 2.66951,-1.62023 0.72546,-0.4899 2.23425,-1.49843 3.35281,-2.24118 1.11859,-0.74275 2.79771,-1.89063 3.73141,-2.55085 0.9337,-0.66022 2.14266,-1.47049 2.68659,-1.8006 0.99279,-0.60255 4.25404,-2.78684 4.81543,-3.22525 0.79608,-0.62168 2.60541,-1.7264 2.82755,-1.7264 0.1375,0 0.42113,-0.20619 0.63027,-0.45819 0.48418,-0.58339 2.93275,-2.24271 3.30947,-2.24271 0.1568,0 0.28506,-0.11623 0.28506,-0.25829 0,-0.14206 0.81886,-0.69473 1.81966,-1.22815 2.27017,-1.21 2.92447,-1.08209 4.14132,0.80956 0.50492,0.78492 1.19773,1.83226 1.5396,2.32743 0.34188,0.49516 1.37587,2.04818 2.29778,3.45115 0.92191,1.40297 2.12996,3.05438 2.68457,3.66981 1.24992,1.38694 3.33445,5.48074 3.92732,7.71291 0.77162,2.90496 -0.0297,6.40966 -2.11798,9.2622 -0.63961,0.87371 -1.65244,1.85833 -2.25075,2.18804 -0.59834,0.32972 -1.63654,0.99103 -2.30717,1.4696 -1.90303,1.35805 -3.55427,1.80392 -6.20394,1.6752 -2.00482,-0.0974 -2.5928,-0.26447 -4.30977,-1.22466 -1.97009,-1.10173 -1.99356,-1.10654 -2.57245,-0.52767 -0.65002,0.65003 -3.24853,7.36104 -3.24967,8.39273 0,0.36164 -0.13399,0.73989 -0.29689,0.84055 -0.16286,0.10067 -0.51809,0.95268 -0.78935,1.89334 -0.51341,1.78034 -1.54765,3.94881 -2.06553,4.33074 -0.42314,0.31206 -0.7898,0.26686 -1.65055,-0.20345 z m 14.87728,-24.65335 c 2.3593,-1.38263 2.7431,-4.31449 0.93868,-7.17078 -0.68554,-1.08521 -1.84636,-1.63949 -2.45496,-1.17223 -0.19291,0.1481 -1.48868,1.02488 -2.87952,1.9484 -1.39085,0.92352 -2.71273,1.90084 -2.93747,2.17183 -0.63303,0.76328 -0.17499,1.88319 1.37947,3.37261 2.17809,2.08699 3.51708,2.27819 5.9538,0.85017 z m -295.95991,6.10599 c -0.97647,-0.7279 -3.90323,-3.20833 -5.223,-4.42648 -0.44706,-0.41264 -2.07696,-1.76309 -3.62202,-3.001 -1.54506,-1.23791 -3.48684,-2.92838 -4.31506,-3.75659 -0.82823,-0.82821 -2.7888,-2.58227 -4.35682,-3.89792 -1.56803,-1.31565 -3.10003,-2.61809 -3.40446,-2.89432 -0.30443,-0.27622 -1.22285,-1.02049 -2.04093,-1.65392 -1.26939,-0.98288 -3.30627,-2.60143 -4.68299,-3.7212 -0.20632,-0.16782 -0.37512,-0.83173 -0.37512,-1.47538 0,-1.00862 0.26436,-1.47329 1.91403,-3.36429 4.99612,-5.72699 8.59695,-9.91605 10.24002,-11.91283 2.3731,-2.88397 4.19208,-3.81065 4.9274,-2.51028 0.16333,0.28885 1.37539,1.40297 2.69345,2.47583 2.82618,2.3004 3.0193,2.93532 1.43741,4.72571 -0.54729,0.61943 -1.32036,1.59889 -1.71793,2.17659 -0.39757,0.57769 -1.57032,1.95656 -2.60612,3.06414 -2.33045,2.49198 -2.42138,3.16472 -0.6366,4.70967 2.34811,2.03258 2.34433,2.03394 5.54213,-1.9992 3.22326,-4.06524 4.31964,-5.17441 5.11467,-5.17441 0.60924,0 5.70369,3.91345 6.25438,4.80449 0.65964,1.06732 -0.87663,3.48646 -4.35164,6.85243 -1.62196,1.57107 -2.39776,2.69566 -2.40042,3.47962 -0.002,0.69795 2.6288,3.16643 3.37708,3.16826 0.29046,6e-4 0.76312,-0.29284 1.05035,-0.65234 0.28723,-0.3595 1.07669,-1.27106 1.75436,-2.02568 0.67766,-0.75461 1.69068,-1.97973 2.25115,-2.72248 2.96731,-3.93239 3.01468,-3.97419 4.30778,-3.80074 0.65499,0.0879 1.33068,0.34733 1.50152,0.57663 0.17085,0.22931 1.28971,1.25742 2.48636,2.28471 2.98923,2.56617 2.97984,2.97684 -0.15005,6.56857 -4.57801,5.2535 -5.77693,6.7302 -5.77693,7.11536 0,0.21496 -0.32234,0.60204 -0.7163,0.86018 -0.39397,0.25814 -0.99787,0.92492 -1.342,1.48173 -0.34413,0.55682 -1.52603,1.98169 -2.62645,3.16638 -2.23537,2.40656 -2.94867,2.64058 -4.50725,1.47876 z m 258.87523,-11.68191 c -0.9078,-0.50982 -2.29231,-1.38168 -3.07672,-1.93746 -0.7844,-0.55578 -1.52714,-1.02059 -1.65055,-1.0329 -0.1234,-0.0123 -1.30051,-1.22414 -2.61579,-2.69294 -1.61274,-1.80096 -2.8938,-3.62588 -3.93425,-5.60448 -1.51265,-2.87653 -1.74505,-3.72673 -2.40155,-8.78589 -0.21667,-1.66989 0.46651,-6.08539 1.24334,-8.03569 1.9469,-4.8879 3.6837,-7.35281 8.08407,-11.47316 1.6471,-1.54228 4.84652,-3.2844 8.25275,-4.4937 1.98834,-0.7059 2.72311,-0.80252 6.3021,-0.82863 3.72322,-0.0272 4.25143,0.0399 6.52183,0.82848 3.02138,1.04938 5.16037,2.10584 6.96449,3.43979 2.23631,1.65352 5.28377,4.99056 6.17182,6.75831 0.45607,0.9078 1.1487,2.03228 1.53919,2.49885 0.91074,1.08818 0.94672,2.89917 0.0853,4.293 -0.34356,0.55591 -0.72315,1.01075 -0.84353,1.01075 -0.12034,0 -1.47586,1.40736 -3.01225,3.12748 -1.54407,1.72875 -3.1157,3.20838 -3.51408,3.30837 -1.27074,0.31893 -1.80372,-0.24328 -2.02634,-2.13749 -0.19953,-1.69774 -0.78272,-3.74688 -1.42562,-5.00935 -0.43281,-0.84988 -3.60468,-4.09061 -4.0037,-4.09061 -0.17267,0 -0.8467,-0.28554 -1.49783,-0.63453 -1.00278,-0.53746 -1.55301,-0.61442 -3.59675,-0.5031 -2.7506,0.14984 -4.39893,0.78954 -7.06097,2.74029 -1.18284,0.8668 -3.90454,4.43951 -3.90661,5.12811 0,0.34192 -0.18945,0.98125 -0.41873,1.42074 -0.55077,1.05563 -0.4127,4.86135 0.22688,6.25329 2.04629,4.45351 3.89094,5.74344 9.64134,6.74202 2.43144,0.42223 2.88162,0.61189 2.71837,1.14522 -0.0615,0.20103 -0.19339,0.73746 -0.29302,1.19207 -0.11539,0.52641 -1.55881,2.18834 -3.97492,4.57653 l -3.79371,3.74996 -1.527,-0.0132 c -1.13336,-0.01 -1.95248,-0.25214 -3.17755,-0.94013 z m -231.068,-17.88531 c -0.71754,-0.58104 -0.71893,-0.59449 -0.80013,-7.75233 -0.14364,-12.66288 -0.13079,-19.05058 0.0493,-24.49966 l 0.176,-5.32538 -0.79075,-0.36028 c -0.61265,-0.27915 -0.90379,-0.27968 -1.29262,-0.002 -0.27603,0.19686 -1.17464,0.69888 -1.99691,1.11561 -0.82227,0.41673 -1.83511,1.09715 -2.25075,1.51204 -0.79444,0.79301 -5.67692,4.43651 -6.62535,4.94409 -0.71095,0.38049 -2.92125,-0.71664 -3.27901,-1.62761 -0.13665,-0.34793 -0.81813,-1.43922 -1.5144,-2.42509 -1.66842,-2.36232 -1.87473,-3.7325 -0.72276,-4.80011 0.46308,-0.42917 1.39121,-1.04079 2.06253,-1.35918 1.80336,-0.85527 4.89991,-2.84796 6.45634,-4.15479 0.75154,-0.63102 2.78441,-2.06423 4.51749,-3.18491 1.73308,-1.12068 3.2226,-2.14977 3.31005,-2.28687 0.1472,-0.23076 1.51154,-1.13382 6.1431,-4.06614 0.99033,-0.627 2.24325,-1.51574 2.78427,-1.97499 0.54102,-0.45925 1.53485,-1.11619 2.20851,-1.45987 1.04487,-0.53304 1.35233,-0.57206 2.09236,-0.26553 0.47713,0.19763 0.86751,0.53325 0.86751,0.74582 0,11.86795 0.39149,36.66443 0.58187,36.85481 0.41462,0.41462 2.23234,-0.32313 3.80191,-1.54309 0.78508,-0.61021 2.3315,-1.71717 3.43648,-2.45992 1.10498,-0.74275 2.97507,-2.01442 4.15576,-2.82594 2.26545,-1.55712 3.32375,-1.80095 4.67586,-1.07733 0.40919,0.21899 0.8333,0.6804 0.94247,1.02534 0.10916,0.34495 0.99435,1.81131 1.96707,3.25858 l 1.7686,2.63141 -0.50589,1.06607 c -0.37165,0.78321 -1.2705,1.56631 -3.38758,2.95135 -7.65641,5.00897 -10.04636,6.51389 -10.93295,6.88434 -0.52954,0.22126 -1.61,0.96242 -2.401,1.64703 -0.79101,0.68462 -1.68354,1.24475 -1.9834,1.24475 -0.29986,0 -0.72206,0.2131 -0.93822,0.47356 -0.21617,0.26046 -1.00921,0.78634 -1.76233,1.16862 -0.75311,0.38228 -2.29635,1.45565 -3.42941,2.38526 -1.13307,0.92962 -2.34847,1.83821 -2.7009,2.0191 -0.35243,0.1809 -0.98329,0.64761 -1.4019,1.03715 -1.09053,1.01481 -2.39069,1.20757 -3.28121,0.48647 z m 37.81205,-22.32548 c -1.03962,-0.39184 -0.72245,0.28367 -4.97828,-10.60314 -0.77427,-1.98066 -1.66425,-4.17514 -1.97773,-4.87663 -0.31349,-0.70149 -0.64603,-1.71432 -0.739,-2.25075 -0.16998,-0.98082 -0.72601,-2.6063 -1.46284,-4.27642 -0.21846,-0.49516 -0.63576,-1.57552 -0.92734,-2.4008 -0.29157,-0.82527 -0.61867,-1.63554 -0.72688,-1.8006 -0.10821,-0.16505 -0.44041,-0.97532 -0.73821,-1.8006 -0.50295,-1.39378 -1.75944,-4.25648 -2.74385,-6.25139 -1.02637,-2.07993 -0.15456,-3.05091 4.23231,-4.71377 1.8156,-0.68821 4.31393,-1.63535 5.55185,-2.10476 1.23791,-0.46941 4.1761,-1.60325 6.52931,-2.51965 5.30377,-2.06541 7.27529,-2.17427 7.27529,-0.40169 0,0.29934 0.12419,0.77875 0.27599,1.06536 0.1518,0.2866 0.57893,1.39889 0.94918,2.47175 0.37026,1.07286 0.80221,2.11878 0.95991,2.32427 0.45584,0.59402 -0.52001,1.77817 -1.79933,2.18341 -0.6248,0.19791 -1.57637,0.6114 -2.11459,0.91888 -0.53822,0.30748 -2.22629,0.98587 -3.75125,1.50755 -4.09468,1.40074 -4.40747,1.85606 -3.2039,4.66387 1.0043,2.34294 1.06256,2.34391 6.13695,0.1016 1.81771,-0.80321 3.94625,-1.63192 4.73009,-1.84156 1.30577,-0.34924 1.47243,-0.33189 1.9893,0.20718 0.7311,0.7625 2.72995,5.88197 2.72995,6.99199 0,1.11271 -0.62171,1.62581 -3.001,2.47677 -1.07286,0.3837 -2.28826,0.87128 -2.7009,1.0835 -0.41264,0.21221 -1.02034,0.388 -1.35045,0.39063 -0.33011,0.003 -1.3137,0.33695 -2.18574,0.74293 -1.52937,0.712 -1.58341,0.77835 -1.52515,1.87269 0.0332,0.624 0.22635,1.33711 0.42918,1.58469 0.20284,0.24759 0.4165,0.70577 0.4748,1.01819 0.17858,0.9569 1.00611,1.27519 2.12405,0.81696 0.54063,-0.22159 1.69406,-0.65141 2.56319,-0.95516 0.86913,-0.30374 2.7937,-1.09865 4.27684,-1.76647 1.48313,-0.66782 2.93274,-1.21121 3.22137,-1.20754 0.85059,0.0108 1.80844,0.95718 2.27129,2.24407 0.23747,0.66022 0.77788,2.12366 1.20092,3.25208 0.78662,2.0982 0.75224,3.00177 -0.14026,3.68663 -0.22352,0.17152 -1.6218,0.75223 -3.10729,1.29048 -1.4855,0.53825 -3.24108,1.21761 -3.9013,1.5097 -0.66022,0.29209 -1.91119,0.76388 -2.77994,1.04842 -0.86875,0.28454 -1.75998,0.69779 -1.98052,0.91832 -0.22053,0.22053 -0.93188,0.54393 -1.58078,0.71866 -0.64889,0.17473 -1.44572,0.51872 -1.77074,0.76443 -0.325,0.24571 -0.79349,0.45562 -1.04107,0.46647 -0.24759,0.0108 -0.99033,0.28065 -1.65055,0.59957 -0.66022,0.31891 -1.44561,0.58441 -1.74531,0.59001 -0.29969,0.006 -0.77235,0.12927 -1.05035,0.27482 -0.29588,0.15492 -0.81299,0.14872 -1.24722,-0.0149 z m 24.35821,-9.28087 c -0.54414,-0.11129 -1.05207,-0.26508 -1.12875,-0.34175 -0.27903,-0.27903 -0.99444,-3.44906 -1.13858,-5.0451 -0.1245,-1.37851 -1.16654,-6.84772 -2.34176,-12.29087 -0.16037,-0.74274 -0.34108,-1.68806 -0.40159,-2.1007 -0.0605,-0.41263 -0.26928,-1.42547 -0.46394,-2.25075 -0.19465,-0.82527 -0.38296,-1.77059 -0.41844,-2.1007 -0.0355,-0.33011 -0.14757,-0.80277 -0.24906,-1.05035 -0.1015,-0.24758 -0.32004,-1.39546 -0.48565,-2.55085 -0.16561,-1.15538 -0.52259,-3.04601 -0.79329,-4.2014 -0.2707,-1.15538 -0.56264,-3.07755 -0.64875,-4.27148 -0.18634,-2.58348 -0.44578,-2.39858 4.74096,-3.3788 5.94361,-1.12327 7.91232,-1.56049 8.24813,-1.8318 0.6099,-0.49275 5.06519,-0.93808 7.81157,-0.78081 3.05264,0.17481 4.19254,0.61774 6.50265,2.5267 2.48475,2.05328 3.42062,3.98929 4.2763,8.84632 0.0911,0.51703 0.21222,1.01895 0.26918,1.11537 0.057,0.0964 -0.0287,1.05309 -0.19034,2.12595 -0.39956,2.652 -1.68585,4.8273 -3.84676,6.50539 -1.92432,1.49437 -2.00324,1.92382 -0.61211,3.33085 0.86487,0.87475 3.63371,3.37824 7.12187,6.43935 2.07081,1.8173 3.99988,3.96147 3.99988,4.4459 0,0.29308 -1.75853,1.78601 -2.10374,1.78601 -0.14141,0 -2.08507,0.33762 -4.31924,0.75025 -6.41662,1.18511 -6.14802,1.2707 -9.73634,-3.10259 -1.30844,-1.59467 -2.67966,-3.23702 -3.04716,-3.64966 -0.36749,-0.41263 -0.99883,-1.17909 -1.40297,-1.70323 -0.40414,-0.52414 -1.07846,-1.17815 -1.49847,-1.45336 l -0.76367,-0.50037 0.21193,1.60341 c 0.26363,1.99459 0.85761,4.52899 1.43079,6.1049 1.05292,2.89492 0.92687,4.85333 -0.35657,5.54021 -1.0595,0.56703 -7.63989,1.69384 -8.66608,1.48396 z m 10.11845,-24.11322 c 1.74766,-1.10325 2.27314,-2.1132 2.18887,-4.20697 -0.0809,-2.00897 -0.77276,-3.01918 -2.69143,-3.92965 -1.36953,-0.64989 -4.56716,-0.36779 -5.32516,0.46978 -0.46776,0.51687 -0.47165,0.70875 -0.0498,2.45489 0.25171,1.04181 0.55113,2.5019 0.66539,3.24465 0.11427,0.74275 0.40602,1.73768 0.64834,2.21095 0.42121,0.82265 0.50668,0.85173 1.94344,0.66114 0.82657,-0.10965 2.00572,-0.5168 2.62033,-0.90479 z m 116.06372,23.6767 c -7.37301,-2.7042 -7.91617,-12.79527 -0.87416,-16.2406 2.5352,-1.24036 5.05988,-1.17114 7.77073,0.21304 5.5209,2.81902 6.51993,9.45339 2.11111,14.01931 -2.14638,2.22286 -6.04978,3.09311 -9.00768,2.00825 z m -78.07469,-4.03855 c -2.44373,-0.21267 -6.5376,-1.37781 -8.69784,-2.47546 -1.29572,-0.65838 -2.72342,-1.74058 -4.98105,-3.77566 -1.36774,-1.23291 -4.47717,-5.9178 -4.47717,-6.74562 0,-0.21228 -0.1192,-0.51426 -0.26489,-0.67106 -0.52324,-0.56316 -1.33999,-4.23272 -1.46613,-6.5872 -0.0707,-1.32044 0.0415,-3.34611 0.24942,-4.5015 0.43224,-2.40189 1.83578,-6.19477 2.69796,-7.29084 0.32133,-0.40851 0.58424,-0.8686 0.58424,-1.02241 0,-0.15382 0.64145,-1.02265 1.42544,-1.93074 2.41683,-2.7994 5.88968,-5.12684 9.07806,-6.08393 0.74275,-0.22296 1.90401,-0.60102 2.58059,-0.84013 1.6023,-0.56628 8.88674,-0.37677 11.07397,0.28809 2.63928,0.80228 5.03669,2.11388 7.55141,4.13134 2.27514,1.82525 4.90274,4.80235 4.90274,5.55487 0,0.17869 0.33761,0.7825 0.75025,1.3418 0.41264,0.5593 0.75025,1.29824 0.75025,1.64208 0,0.34385 0.20297,0.91496 0.45105,1.26914 0.56501,0.80667 1.16386,6.28458 0.92128,8.42736 -0.24193,2.13694 -0.75405,4.24064 -1.2761,5.24195 -0.23664,0.4539 -0.35236,0.82527 -0.25715,0.82527 0.2664,0 -0.99579,2.36214 -2.245,4.2014 -1.86048,2.73928 -6.05698,6.22081 -8.72475,7.23829 -1.42627,0.54398 -7.59223,2.10029 -7.99652,2.01835 -0.1261,-0.0256 -1.30962,-0.14048 -2.63006,-0.25539 z m 2.77161,-10.53975 c 2.53567,-0.59962 3.60199,-1.19824 5.46723,-3.06927 1.29074,-1.29475 1.91842,-2.18967 2.13221,-3.04004 0.16665,-0.66283 0.43342,-1.51534 0.59284,-1.89448 0.77302,-1.83844 -0.12184,-7.07999 -1.51001,-8.84477 -0.33052,-0.42018 -0.60093,-0.89524 -0.60093,-1.05569 0,-0.36573 -3.04223,-2.68108 -4.00246,-3.04616 -1.18624,-0.45101 -5.63377,-0.32864 -6.71871,0.18485 -0.53235,0.25197 -1.81528,1.35708 -2.85095,2.4558 -2.28743,2.42671 -2.93339,4.14436 -2.93339,7.80014 0,3.63068 0.64708,5.58789 2.53391,7.66433 1.24126,1.36599 1.96127,1.86847 3.49125,2.4365 2.24733,0.83436 2.50003,0.85785 4.39901,0.40879 z m 34.59179,-6.92874 c -2.08724,-0.46443 -3.00408,-1.25577 -2.99131,-2.58187 0.006,-0.60771 0.20362,-1.44255 0.43951,-1.85519 0.23588,-0.41264 0.43367,-1.06985 0.43951,-1.46047 0.0116,-0.77061 -0.0142,-0.76972 -2.24011,0.0771 -1.95009,0.74192 -2.77297,0.62578 -3.44962,-0.48689 -0.7473,-1.22883 -1.34059,-3.83857 -1.09505,-4.81686 0.21453,-0.85476 0.59196,-1.05592 2.89231,-1.54155 2.10473,-0.44432 2.28838,-1.06025 0.62857,-2.10804 -1.51676,-0.95749 -2.25012,-2.03724 -2.01634,-2.9687 0.0974,-0.38806 0.8625,-1.40188 1.70025,-2.25294 2.00835,-2.04028 2.64379,-2.04204 4.57936,-0.0127 0.90775,0.95171 1.57033,1.42811 1.74429,1.25415 0.15429,-0.15429 0.36621,-1.19816 0.47095,-2.31972 0.18248,-1.95418 0.23163,-2.05643 1.17894,-2.45223 0.85286,-0.35635 1.248,-0.34784 2.87933,0.062 2.62078,0.65843 3.24126,1.10646 3.24126,2.34046 0,0.55313 -0.19342,1.55391 -0.42982,2.22395 -0.3581,1.01496 -0.36288,1.27382 -0.0286,1.55123 0.30179,0.25046 0.64997,0.18131 1.40515,-0.2791 0.62209,-0.37927 1.52499,-0.6125 2.37384,-0.6132 1.27305,-0.001 1.40564,0.0738 1.87562,1.05941 0.27815,0.58329 0.50573,1.31807 0.50573,1.63284 0,0.31477 0.11892,0.64581 0.26427,0.73564 0.4893,0.3024 0.58278,1.80547 0.1628,2.61763 -0.39321,0.76038 -1.13291,1.12635 -3.20299,1.58468 -1.21996,0.2701 -1.00958,0.94017 0.67522,2.15058 0.82528,0.5929 1.5005,1.27224 1.5005,1.50964 0,0.95074 -0.90989,2.43784 -2.34179,3.82736 -1.31302,1.27416 -1.61946,1.43717 -2.35953,1.2551 -1.24234,-0.30564 -2.18908,-0.99853 -2.50704,-1.83484 -0.50127,-1.31843 -1.31549,-0.91765 -1.7264,0.84975 -0.20258,0.87138 -0.36833,1.81034 -0.36833,2.0866 0,0.32479 -0.39768,0.61272 -1.12537,0.81481 -1.2805,0.35562 -1.25642,0.356 -3.07508,-0.0487 z"
       id="path4836"
       inkscape:connector-curvature="0" />
  </g>
</svg>
