<?xml version="1.0" encoding="UTF-8" standalone="no"?>
<!-- Created with Inkscape (http://www.inkscape.org/) -->

<svg
   xmlns:dc="http://purl.org/dc/elements/1.1/"
   xmlns:cc="http://creativecommons.org/ns#"
   xmlns:rdf="http://www.w3.org/1999/02/22-rdf-syntax-ns#"
   xmlns:svg="http://www.w3.org/2000/svg"
   xmlns="http://www.w3.org/2000/svg"
   xmlns:sodipodi="http://sodipodi.sourceforge.net/DTD/sodipodi-0.dtd"
   xmlns:inkscape="http://www.inkscape.org/namespaces/inkscape"
   width="539.81049mm"
   height="203.84187mm"
   viewBox="0 0 1912.7143 722.27434"
   id="svg2"
   version="1.1"
   inkscape:version="0.91 r13725"
   sodipodi:docname="all_puffers.svg"
   inkscape:export-filename="/home/mouse/project/fire_pong/cad/all_puffers.png"
   inkscape:export-xdpi="150"
   inkscape:export-ydpi="150">
  <defs
     id="defs4">
    <marker
       inkscape:stockid="Arrow1Send"
       orient="auto"
       refY="0"
       refX="0"
       id="marker6368"
       style="overflow:visible"
       inkscape:isstock="true">
      <path
         id="path6370"
         d="M 0,0 5,-5 -12.5,0 5,5 0,0 Z"
         style="fill:#ff0000;fill-opacity:1;fill-rule:evenodd;stroke:#ff0000;stroke-width:1pt;stroke-opacity:1"
         transform="matrix(-0.2,0,0,-0.2,-1.2,0)"
         inkscape:connector-curvature="0" />
    </marker>
    <marker
       inkscape:stockid="Arrow1Lend"
       orient="auto"
       refY="0"
       refX="0"
       id="Arrow1Lend"
       style="overflow:visible"
       inkscape:isstock="true">
      <path
         id="path4357"
         d="M 0,0 5,-5 -12.5,0 5,5 0,0 Z"
         style="fill:#ff0000;fill-opacity:1;fill-rule:evenodd;stroke:#ff0000;stroke-width:1pt;stroke-opacity:1"
         transform="matrix(-0.8,0,0,-0.8,-10,0)"
         inkscape:connector-curvature="0" />
    </marker>
    <marker
       inkscape:stockid="Arrow1Send"
       orient="auto"
       refY="0"
       refX="0"
       id="marker6368-6"
       style="overflow:visible"
       inkscape:isstock="true">
      <path
         inkscape:connector-curvature="0"
         id="path6370-1"
         d="M 0,0 5,-5 -12.5,0 5,5 0,0 Z"
         style="fill:#ff0000;fill-opacity:1;fill-rule:evenodd;stroke:#ff0000;stroke-width:1pt;stroke-opacity:1"
         transform="matrix(-0.2,0,0,-0.2,-1.2,0)" />
    </marker>
  </defs>
  <sodipodi:namedview
     id="base"
     pagecolor="#ffffff"
     bordercolor="#666666"
     borderopacity="1.0"
     inkscape:pageopacity="0.0"
     inkscape:pageshadow="2"
     inkscape:zoom="0.7"
     inkscape:cx="623.67622"
     inkscape:cy="177.45052"
     inkscape:document-units="px"
     inkscape:current-layer="layer1"
     showgrid="false"
     inkscape:snap-to-guides="true"
     inkscape:snap-page="true"
     inkscape:snap-grids="true"
     inkscape:window-width="2878"
     inkscape:window-height="1581"
     inkscape:window-x="0"
     inkscape:window-y="37"
     inkscape:window-maximized="1"
     fit-margin-top="10"
     fit-margin-left="10"
     fit-margin-right="10"
     fit-margin-bottom="10">
    <inkscape:grid
       type="xygrid"
       id="grid4136"
       originx="246.33887"
       originy="-251.51365" />
  </sodipodi:namedview>
  <metadata
     id="metadata7">
    <rdf:RDF>
      <cc:Work
         rdf:about="">
        <dc:format>image/svg+xml</dc:format>
        <dc:type
           rdf:resource="http://purl.org/dc/dcmitype/StillImage" />
        <dc:title></dc:title>
      </cc:Work>
    </rdf:RDF>
  </metadata>
  <g
     inkscape:label="Layer 1"
     inkscape:groupmode="layer"
     id="layer1"
     style="display:inline"
     transform="translate(246.33888,-78.57419)">
    <text
       xml:space="preserve"
       style="font-style:normal;font-weight:normal;font-size:10px;line-height:125%;font-family:sans-serif;text-align:start;letter-spacing:0px;word-spacing:0px;text-anchor:start;fill:#000000;fill-opacity:1;stroke:none;stroke-width:1px;stroke-linecap:butt;stroke-linejoin:miter;stroke-opacity:1"
       x="490"
       y="652.36218"
       id="text4835"
       sodipodi:linespacing="125%"><tspan
         sodipodi:role="line"
         id="tspan4837"
         x="490"
         y="652.36218" /></text>
    <g
       id="g4446">
      <path
         sodipodi:nodetypes="ccccccccc"
         inkscape:connector-curvature="0"
         id="path5188"
         d="m 158.39514,589.79102 -2,8 0,96 2,8 5,0 2,-8 0,-96 -2,-8 z"
         style="fill:#787878;fill-opacity:0.47058824;fill-rule:evenodd;stroke:#000000;stroke-width:1px;stroke-linecap:butt;stroke-linejoin:miter;stroke-opacity:1" />
      <path
         sodipodi:nodetypes="ccccccccc"
         inkscape:connector-curvature="0"
         id="path4220"
         d="m 437.52649,749.83571 -8,-2 -256,0 -8,2 0,5 8,2 256,0 8,-2 z"
         style="fill:#787878;fill-opacity:0.47058824;fill-rule:evenodd;stroke:#000000;stroke-width:1px;stroke-linecap:butt;stroke-linejoin:miter;stroke-opacity:1" />
      <path
         style="fill:#787878;fill-opacity:0.47058824;fill-rule:evenodd;stroke:#000000;stroke-width:1px;stroke-linecap:butt;stroke-linejoin:miter;stroke-opacity:1"
         d="m 158.39514,715.79102 -2,8 0,16 2,8 5,0 2,-8 0,-16 -2,-8 z"
         id="path4230"
         inkscape:connector-curvature="0"
         sodipodi:nodetypes="ccccccccc" />
      <g
         transform="matrix(-1,0,0,1,236.7144,23.464284)"
         id="g4819">
        <path
           style="display:inline;fill:#5e00ff;fill-opacity:1;fill-rule:evenodd;stroke:#000000;stroke-width:1px;stroke-linecap:butt;stroke-linejoin:miter;stroke-opacity:1"
           d="m 80,731.3622 8,2 15,0 0,-2 7,0 0,-5 -7,0 0,-2 -15,0 -8,2 z"
           id="path4218"
           inkscape:connector-curvature="0" />
        <path
           style="display:inline;fill:#ff6600;fill-opacity:0.6760355;fill-rule:evenodd;stroke:#000000;stroke-width:1px;stroke-linecap:butt;stroke-linejoin:miter;stroke-opacity:1"
           d="m 104,724.3622 c 0,0 19.90823,0.1492 29.79093,1.19956 8.70496,0.92519 25.87659,4.48255 25.87659,4.48255 l -1.70463,9 c 0,0 -16.46963,-3.78858 -25.68719,-4.73509 C 122.89451,733.34591 104,733.3622 104,733.3622 Z"
           id="path4224"
           inkscape:connector-curvature="0"
           sodipodi:nodetypes="csccscc" />
      </g>
      <path
         style="fill:#787878;fill-opacity:0.78431373;fill-rule:evenodd;stroke:#000000;stroke-width:1px;stroke-linecap:butt;stroke-linejoin:miter;stroke-opacity:1"
         d="m 173.47351,756.83571 0,-9 -8,0 0,-8 -9,0 0,8 -8,0 0,9 25,0"
         id="path4222"
         inkscape:connector-curvature="0" />
      <rect
         y="694.73511"
         x="148.13843"
         height="28.337606"
         width="24.784037"
         id="rect4234"
         style="display:inline;opacity:0.82200012;fill:#00ab00;fill-opacity:1;fill-rule:nonzero;stroke:#000000;stroke-width:1.2159642;stroke-linecap:round;stroke-miterlimit:4;stroke-dasharray:none;stroke-dashoffset:0;stroke-opacity:1" />
      <path
         style="fill:#787878;fill-opacity:0.47058824;fill-rule:evenodd;stroke:#000000;stroke-width:1px;stroke-linecap:butt;stroke-linejoin:miter;stroke-opacity:1"
         d="m 438.39514,589.79102 -2,8 0,96 2,8 5,0 2,-8 0,-96 -2,-8 z"
         id="path5190"
         inkscape:connector-curvature="0"
         sodipodi:nodetypes="ccccccccc" />
      <path
         style="fill:#787878;fill-opacity:0.47058824;fill-rule:evenodd;stroke:#000000;stroke-width:1px;stroke-linecap:butt;stroke-linejoin:miter;stroke-opacity:1"
         d="m 717.52649,749.83571 -8,-2 -256,0 -8,2 0,5 8,2 256,0 8,-2 z"
         id="path5192"
         inkscape:connector-curvature="0"
         sodipodi:nodetypes="ccccccccc" />
      <path
         sodipodi:nodetypes="ccccccccc"
         inkscape:connector-curvature="0"
         id="path5194"
         d="m 438.39514,715.79102 -2,8 0,16 2,8 5,0 2,-8 0,-16 -2,-8 z"
         style="fill:#787878;fill-opacity:0.47058824;fill-rule:evenodd;stroke:#000000;stroke-width:1px;stroke-linecap:butt;stroke-linejoin:miter;stroke-opacity:1" />
      <path
         inkscape:connector-curvature="0"
         id="path5196"
         d="m 453.47351,756.83571 0,-9 -8,0 0,-8 -9,0 0,8 -8,0 0,9 25,0"
         style="fill:#787878;fill-opacity:0.78431373;fill-rule:evenodd;stroke:#000000;stroke-width:1px;stroke-linecap:butt;stroke-linejoin:miter;stroke-opacity:1" />
      <rect
         style="display:inline;opacity:0.82200012;fill:#00ab00;fill-opacity:1;fill-rule:nonzero;stroke:#000000;stroke-width:1.2159642;stroke-linecap:round;stroke-miterlimit:4;stroke-dasharray:none;stroke-dashoffset:0;stroke-opacity:1"
         id="rect5198"
         width="24.784037"
         height="28.337606"
         x="428.13843"
         y="694.73511" />
      <path
         sodipodi:nodetypes="ccccccccc"
         inkscape:connector-curvature="0"
         id="path5200"
         d="m 718.39514,589.79102 -2,8 0,96 2,8 5,0 2,-8 0,-96 -2,-8 z"
         style="fill:#787878;fill-opacity:0.47058824;fill-rule:evenodd;stroke:#000000;stroke-width:1px;stroke-linecap:butt;stroke-linejoin:miter;stroke-opacity:1" />
      <path
         sodipodi:nodetypes="ccccccccc"
         inkscape:connector-curvature="0"
         id="path5202"
         d="m 997.52649,749.83571 -8,-2 -256,0 -8,2 0,5 8,2 256,0 8,-2 z"
         style="fill:#787878;fill-opacity:0.47058824;fill-rule:evenodd;stroke:#000000;stroke-width:1px;stroke-linecap:butt;stroke-linejoin:miter;stroke-opacity:1" />
      <path
         style="fill:#787878;fill-opacity:0.47058824;fill-rule:evenodd;stroke:#000000;stroke-width:1px;stroke-linecap:butt;stroke-linejoin:miter;stroke-opacity:1"
         d="m 718.39514,715.79102 -2,8 0,16 2,8 5,0 2,-8 0,-16 -2,-8 z"
         id="path5204"
         inkscape:connector-curvature="0"
         sodipodi:nodetypes="ccccccccc" />
      <path
         style="fill:#787878;fill-opacity:0.78431373;fill-rule:evenodd;stroke:#000000;stroke-width:1px;stroke-linecap:butt;stroke-linejoin:miter;stroke-opacity:1"
         d="m 733.47351,756.83571 0,-9 -8,0 0,-8 -9,0 0,8 -8,0 0,9 25,0"
         id="path5206"
         inkscape:connector-curvature="0" />
      <rect
         y="694.73511"
         x="708.13843"
         height="28.337606"
         width="24.784037"
         id="rect5208"
         style="display:inline;opacity:0.82200012;fill:#00ab00;fill-opacity:1;fill-rule:nonzero;stroke:#000000;stroke-width:1.2159642;stroke-linecap:round;stroke-miterlimit:4;stroke-dasharray:none;stroke-dashoffset:0;stroke-opacity:1" />
      <path
         style="fill:#787878;fill-opacity:0.47058824;fill-rule:evenodd;stroke:#000000;stroke-width:1px;stroke-linecap:butt;stroke-linejoin:miter;stroke-opacity:1"
         d="m 998.39514,589.79102 -2,8 0,96 2,8 4.99996,0 2,-8 0,-96 -2,-8 z"
         id="path5210"
         inkscape:connector-curvature="0"
         sodipodi:nodetypes="ccccccccc" />
      <path
         style="fill:#787878;fill-opacity:0.47058824;fill-rule:evenodd;stroke:#000000;stroke-width:1px;stroke-linecap:butt;stroke-linejoin:miter;stroke-opacity:1"
         d="m 1277.5265,749.83571 -8,-2 -256,0 -8,2 0,5 8,2 256,0 8,-2 z"
         id="path5212"
         inkscape:connector-curvature="0"
         sodipodi:nodetypes="ccccccccc" />
      <path
         sodipodi:nodetypes="ccccccccc"
         inkscape:connector-curvature="0"
         id="path5214"
         d="m 998.39514,715.79102 -2,8 0,16 2,8 4.99996,0 2,-8 0,-16 -2,-8 z"
         style="fill:#787878;fill-opacity:0.47058824;fill-rule:evenodd;stroke:#000000;stroke-width:1px;stroke-linecap:butt;stroke-linejoin:miter;stroke-opacity:1" />
      <path
         inkscape:connector-curvature="0"
         id="path5216"
         d="m 1013.4735,756.83571 0,-9 -8,0 0,-8 -8.99999,0 0,8 -8,0 0,9 24.99999,0"
         style="fill:#787878;fill-opacity:0.78431373;fill-rule:evenodd;stroke:#000000;stroke-width:1px;stroke-linecap:butt;stroke-linejoin:miter;stroke-opacity:1" />
      <rect
         style="display:inline;opacity:0.82200012;fill:#00ab00;fill-opacity:1;fill-rule:nonzero;stroke:#000000;stroke-width:1.2159642;stroke-linecap:round;stroke-miterlimit:4;stroke-dasharray:none;stroke-dashoffset:0;stroke-opacity:1"
         id="rect5218"
         width="24.784037"
         height="28.337606"
         x="988.13843"
         y="694.73511" />
      <path
         sodipodi:nodetypes="ccccccccc"
         inkscape:connector-curvature="0"
         id="path5220"
         d="m 1278.3951,589.79102 -2,8 0,96 2,8 5,0 2,-8 0,-96 -2,-8 z"
         style="fill:#787878;fill-opacity:0.47058824;fill-rule:evenodd;stroke:#000000;stroke-width:1px;stroke-linecap:butt;stroke-linejoin:miter;stroke-opacity:1" />
      <path
         style="fill:#787878;fill-opacity:0.47058824;fill-rule:evenodd;stroke:#000000;stroke-width:1px;stroke-linecap:butt;stroke-linejoin:miter;stroke-opacity:1"
         d="m 1278.3951,715.79102 -2,8 0,16 2,8 5,0 2,-8 0,-16 -2,-8 z"
         id="path5222"
         inkscape:connector-curvature="0"
         sodipodi:nodetypes="ccccccccc" />
      <path
         sodipodi:nodetypes="ccccccccc"
         style="fill:#787878;fill-opacity:0.78431373;fill-rule:evenodd;stroke:#000000;stroke-width:1px;stroke-linecap:butt;stroke-linejoin:miter;stroke-opacity:1"
         d="m 1285.4735,756.83571 0,-9 0,0 0,-8 -9,0 0,8 -8,0 0,9 17,0"
         id="path5224"
         inkscape:connector-curvature="0" />
      <rect
         y="694.73511"
         x="1268.1384"
         height="28.337606"
         width="24.784037"
         id="rect5226"
         style="display:inline;opacity:0.82200012;fill:#00ab00;fill-opacity:1;fill-rule:nonzero;stroke:#000000;stroke-width:1.2159642;stroke-linecap:round;stroke-miterlimit:4;stroke-dasharray:none;stroke-dashoffset:0;stroke-opacity:1" />
      <g
         transform="translate(-96.25,16.785714)"
         id="g4863">
        <path
           style="fill:#000080;fill-rule:evenodd;stroke:#000000;stroke-width:1px;stroke-linecap:butt;stroke-linejoin:miter;stroke-opacity:1"
           d="m 244.88449,592.52993 25,0 0,-30 5,0 0,35 -35,0 0,-35 5,0 0,30"
           id="path4855"
           inkscape:connector-curvature="0" />
        <path
           style="fill:none;fill-rule:evenodd;stroke:#ff0000;stroke-width:1px;stroke-linecap:butt;stroke-linejoin:miter;stroke-opacity:1"
           d="m 252.79023,567.29906 -10.79029,0.0631 0,80.92332"
           id="path4859"
           inkscape:connector-curvature="0"
           sodipodi:nodetypes="ccc" />
        <path
           style="fill:none;fill-rule:evenodd;stroke:#ff0000;stroke-width:1px;stroke-linecap:butt;stroke-linejoin:miter;stroke-opacity:1"
           d="m 243.99994,650.40221 0,-55.04002 28,0 0,-28 -10.1691,0.0631"
           id="path4861"
           inkscape:connector-curvature="0"
           sodipodi:nodetypes="ccccc" />
      </g>
      <g
         id="g4880"
         transform="translate(183.75,16.785714)">
        <path
           inkscape:connector-curvature="0"
           id="path4882"
           d="m 244.88449,592.52993 25,0 0,-30 5,0 0,35 -35,0 0,-35 5,0 0,30"
           style="fill:#000080;fill-rule:evenodd;stroke:#000000;stroke-width:1px;stroke-linecap:butt;stroke-linejoin:miter;stroke-opacity:1" />
        <path
           sodipodi:nodetypes="ccc"
           inkscape:connector-curvature="0"
           id="path4884"
           d="m 252.79023,567.29906 -10.79029,0.0631 0,81.19117"
           style="fill:none;fill-rule:evenodd;stroke:#ff0000;stroke-width:1px;stroke-linecap:butt;stroke-linejoin:miter;stroke-opacity:1" />
        <path
           sodipodi:nodetypes="ccccc"
           inkscape:connector-curvature="0"
           id="path4886"
           d="m 243.99994,650.49149 0,-55.1293 28,0 0,-28 -10.1691,0.0631"
           style="fill:none;fill-rule:evenodd;stroke:#ff0000;stroke-width:1px;stroke-linecap:butt;stroke-linejoin:miter;stroke-opacity:1" />
      </g>
      <g
         transform="translate(463.75,16.785714)"
         id="g4892">
        <path
           style="fill:#000080;fill-rule:evenodd;stroke:#000000;stroke-width:1px;stroke-linecap:butt;stroke-linejoin:miter;stroke-opacity:1"
           d="m 244.88449,592.52993 25,0 0,-30 5,0 0,35 -35,0 0,-35 5,0 0,30"
           id="path4894"
           inkscape:connector-curvature="0" />
        <path
           style="fill:none;fill-rule:evenodd;stroke:#ff0000;stroke-width:1px;stroke-linecap:butt;stroke-linejoin:miter;stroke-opacity:1"
           d="m 252.79023,567.29906 -10.79029,0.0631 0,81.14653"
           id="path4896"
           inkscape:connector-curvature="0"
           sodipodi:nodetypes="ccc" />
        <path
           style="fill:none;fill-rule:evenodd;stroke:#ff0000;stroke-width:1px;stroke-linecap:butt;stroke-linejoin:miter;stroke-opacity:1"
           d="m 243.99994,650.53614 0,-55.17395 28,0 0,-28 -10.1691,0.0631"
           id="path4898"
           inkscape:connector-curvature="0"
           sodipodi:nodetypes="ccccc" />
      </g>
      <g
         id="g4900"
         transform="translate(743.75,16.785714)">
        <path
           inkscape:connector-curvature="0"
           id="path4902"
           d="m 244.88449,592.52993 25,0 0,-30 5,0 0,35 -35,0 0,-35 5,0 0,30"
           style="fill:#000080;fill-rule:evenodd;stroke:#000000;stroke-width:1px;stroke-linecap:butt;stroke-linejoin:miter;stroke-opacity:1" />
        <path
           sodipodi:nodetypes="ccc"
           inkscape:connector-curvature="0"
           id="path4904"
           d="m 252.79023,567.29906 -10.79029,0.0631 0,81.37121"
           style="fill:none;fill-rule:evenodd;stroke:#ff0000;stroke-width:1px;stroke-linecap:butt;stroke-linejoin:miter;stroke-opacity:1" />
        <path
           sodipodi:nodetypes="ccccc"
           inkscape:connector-curvature="0"
           id="path4906"
           d="m 243.99994,650.69056 0,-55.32837 28,0 0,-28 -10.1691,0.0631"
           style="fill:none;fill-rule:evenodd;stroke:#ff0000;stroke-width:1px;stroke-linecap:butt;stroke-linejoin:miter;stroke-opacity:1" />
      </g>
      <g
         transform="translate(1023.75,16.785714)"
         id="g4908">
        <path
           style="fill:#000080;fill-rule:evenodd;stroke:#000000;stroke-width:1px;stroke-linecap:butt;stroke-linejoin:miter;stroke-opacity:1"
           d="m 244.88449,592.52993 25,0 0,-30 5,0 0,35 -35,0 0,-35 5,0 0,30"
           id="path4910"
           inkscape:connector-curvature="0" />
        <path
           style="fill:none;fill-rule:evenodd;stroke:#ff0000;stroke-width:1px;stroke-linecap:butt;stroke-linejoin:miter;stroke-opacity:1"
           d="m 252.79023,567.29906 -10.79029,0.0631 0,81.24494"
           id="path4912"
           inkscape:connector-curvature="0"
           sodipodi:nodetypes="ccc" />
        <path
           style="fill:none;fill-rule:evenodd;stroke:#ff0000;stroke-width:1px;stroke-linecap:butt;stroke-linejoin:miter;stroke-opacity:1"
           d="m 243.99994,650.69056 0,-55.32837 28,0 0,-28 -10.1691,0.0631"
           id="path4914"
           inkscape:connector-curvature="0"
           sodipodi:nodetypes="ccccc" />
      </g>
      <path
         sodipodi:nodetypes="cc"
         inkscape:connector-curvature="0"
         id="path4916"
         d="m 84.825457,667.36219 1183.280443,0"
         style="fill:none;fill-rule:evenodd;stroke:#ff0000;stroke-width:1px;stroke-linecap:butt;stroke-linejoin:miter;stroke-opacity:1" />
      <path
         style="fill:none;fill-rule:evenodd;stroke:#ff0000;stroke-width:1px;stroke-linecap:butt;stroke-linejoin:miter;stroke-opacity:1"
         d="m 84.719493,665.36219 1181.386407,0"
         id="path4918"
         inkscape:connector-curvature="0"
         sodipodi:nodetypes="cc" />
    </g>
    <g
       id="g4423"
       transform="matrix(1.4030946,0,0,1.4030946,169.20067,-322.56579)">
      <path
         sodipodi:nodetypes="ccccccccccccccccc"
         inkscape:connector-curvature="0"
         id="path4140"
         d="m -242.40581,624.87449 -28,40 0,109.98437 c 35.07993,0.10685 70.05874,0.0363 105.13867,0 l 0,-109.98437 -28,-40 -20,0 -1.95703,10 16.95703,0 23,35 0,95.01562 c -28.37956,0.0315 -56.75911,0.0143 -85.13867,0 l 0,-95.01562 23,-35 16.95703,0 -1.95703,-10 z"
         style="display:inline;fill:#0000a7;fill-opacity:0.26775148;fill-rule:evenodd;stroke:#000000;stroke-width:1px;stroke-linecap:butt;stroke-linejoin:miter;stroke-opacity:1" />
      <path
         sodipodi:nodetypes="ccccccccc"
         inkscape:connector-curvature="0"
         id="path4168"
         d="m -222.30121,614.87536 0,10.01786 1.92219,10 5.03571,0 1.89603,-10 0,-10.01786 -1.95853,-10 -5,0 z"
         style="display:inline;fill:#00ffff;fill-opacity:1;fill-rule:evenodd;stroke:#000000;stroke-width:1px;stroke-linecap:butt;stroke-linejoin:miter;stroke-opacity:1" />
      <path
         inkscape:connector-curvature="0"
         id="path4218-7"
         d="m -213.40581,603.87536 8,2 15,0 0,-2 7,0 0,-5 -7,0 0,-2 -15,0 -8,2 z"
         style="display:inline;fill:#5e00ff;fill-opacity:1;fill-rule:evenodd;stroke:#000000;stroke-width:1px;stroke-linecap:butt;stroke-linejoin:miter;stroke-opacity:1" />
      <path
         inkscape:connector-curvature="0"
         id="path4220-6"
         d="m -215.40581,596.87536 2,-8 0,-16 -2,-8 -5,0 -2,8 0,16 2,8 z"
         style="display:inline;fill:#787878;fill-opacity:0.47058824;fill-rule:evenodd;stroke:#000000;stroke-width:1px;stroke-linecap:butt;stroke-linejoin:miter;stroke-opacity:1" />
      <path
         inkscape:connector-curvature="0"
         id="path4212"
         d="m -222.40581,613.87536 9,0 0,-8 8,0 0,-9 -8,0 0,-8 -9,0 0,25"
         style="display:inline;fill:#787878;fill-opacity:0.78431373;fill-rule:evenodd;stroke:#000000;stroke-width:1px;stroke-linecap:butt;stroke-linejoin:miter;stroke-opacity:1" />
      <path
         sodipodi:nodetypes="csccscc"
         inkscape:connector-curvature="0"
         id="path4224-8"
         d="m -189.40581,596.87536 c 0,0 19.90823,0.1492 29.79093,1.19956 8.70496,0.92519 25.87659,4.48255 25.87659,4.48255 l -1.70463,9 c 0,0 -16.46963,-3.78858 -25.68719,-4.73509 -9.38119,-0.96331 -28.2757,-0.94702 -28.2757,-0.94702 z"
         style="display:inline;fill:#ff6600;fill-opacity:0.6760355;fill-rule:evenodd;stroke:#000000;stroke-width:1px;stroke-linecap:butt;stroke-linejoin:miter;stroke-opacity:1" />
      <path
         style="display:inline;fill:#787878;fill-opacity:0.47058824;fill-rule:evenodd;stroke:#000000;stroke-width:1px;stroke-linecap:butt;stroke-linejoin:miter;stroke-opacity:1"
         d="m -215.40581,556.87536 2,-8 0,-16 -2,-8 -5,0 -2,8 0,16 2,8 z"
         id="path4232"
         inkscape:connector-curvature="0" />
      <rect
         y="505.42975"
         x="-230.29782"
         height="28.337606"
         width="24.784037"
         id="rect4234-9"
         style="display:inline;opacity:0.82200012;fill:#00ab00;fill-opacity:1;fill-rule:nonzero;stroke:#000000;stroke-width:1.2159642;stroke-linecap:round;stroke-miterlimit:4;stroke-dasharray:none;stroke-dashoffset:0;stroke-opacity:1" />
      <rect
         y="345.3927"
         x="-222.90581"
         height="160"
         width="10"
         id="rect4245"
         style="display:inline;opacity:0.82200012;fill:#fffc00;fill-opacity:0.6760355;fill-rule:nonzero;stroke:#000000;stroke-width:1;stroke-linecap:round;stroke-miterlimit:4;stroke-dasharray:none;stroke-dashoffset:0;stroke-opacity:1" />
      <text
         xml:space="preserve"
         style="font-style:normal;font-weight:normal;font-size:10px;line-height:125%;font-family:sans-serif;text-align:center;letter-spacing:0px;word-spacing:0px;text-anchor:middle;display:inline;fill:#000000;fill-opacity:1;stroke:none;stroke-width:1px;stroke-linecap:butt;stroke-linejoin:miter;stroke-opacity:1"
         x="-218.00835"
         y="526.87885"
         id="text4256"
         sodipodi:linespacing="125%"><tspan
           sodipodi:role="line"
           id="tspan4258"
           x="-218.00835"
           y="526.87885"
           style="font-size:20px">S</tspan></text>
      <path
         style="display:inline;fill:#787878;fill-opacity:0.47058824;fill-rule:evenodd;stroke:#000000;stroke-width:1px;stroke-linecap:butt;stroke-linejoin:miter;stroke-opacity:1"
         d="m -181.90581,557.80719 -8,-2 -16,0 -8,2 0,5 8,2 16,0 8,-2 z"
         id="path4265"
         inkscape:connector-curvature="0" />
      <path
         style="display:inline;fill:#787878;fill-opacity:0.78431373;fill-rule:evenodd;stroke:#000000;stroke-width:1px;stroke-linecap:butt;stroke-linejoin:miter;stroke-opacity:1"
         d="m -222.40581,572.82238 9,0 0,-8 8,0 0,-9 -8,0 0,-8 -9,0 0,25"
         id="path4222-4"
         inkscape:connector-curvature="0" />
      <g
         transform="translate(-400.37009,-132.30827)"
         id="g4260"
         style="display:inline">
        <circle
           style="opacity:0.82200012;fill:#d30000;fill-opacity:1;fill-rule:nonzero;stroke:#000000;stroke-width:1;stroke-linecap:round;stroke-miterlimit:4;stroke-dasharray:none;stroke-dashoffset:0;stroke-opacity:1"
           id="path4250"
           cx="225"
           cy="692.36218"
           r="15" />
        <text
           xml:space="preserve"
           style="font-style:normal;font-weight:normal;font-size:10px;line-height:125%;font-family:sans-serif;text-align:center;letter-spacing:0px;word-spacing:0px;text-anchor:middle;fill:#000000;fill-opacity:1;stroke:none;stroke-width:1px;stroke-linecap:butt;stroke-linejoin:miter;stroke-opacity:1"
           x="224.31152"
           y="699.65222"
           id="text4252"
           sodipodi:linespacing="125%"><tspan
             sodipodi:role="line"
             id="tspan4254"
             x="224.31152"
             y="699.65222"
             style="font-size:20px">R</tspan></text>
      </g>
      <path
         inkscape:connector-curvature="0"
         id="path4305"
         d="m -175.40581,624.87536 -20,-20"
         style="display:inline;fill:none;fill-rule:evenodd;stroke:#000000;stroke-width:1px;stroke-linecap:butt;stroke-linejoin:miter;stroke-opacity:1" />
      <path
         inkscape:connector-curvature="0"
         id="path4307"
         d="m -270.40581,624.87536 50,-5"
         style="display:inline;fill:none;fill-rule:evenodd;stroke:#000000;stroke-width:1px;stroke-linecap:butt;stroke-linejoin:miter;stroke-opacity:1" />
      <path
         inkscape:connector-curvature="0"
         id="path4319"
         d="m -179.23198,339.37449 -2.36524,4.75976 c 0,0 7.3711,3.97258 7.3711,10.01368 0,2.98833 -1.67698,5.56674 -4.81641,8.19921 -3.13942,2.63247 -7.60243,5.06016 -12.17187,7.34571 -4.56944,2.28554 -9.23038,4.43047 -12.94922,6.82226 -1.85942,1.1959 -3.49812,2.44983 -4.7793,3.95508 -1.28118,1.50525 -2.22589,3.38014 -2.23633,5.47852 -0.0649,13.0672 0,99.46875 0,99.46875 l 0,0.002 0,0.002 c 0.015,5.923 2.42047,10.9708 5.78906,15.13086 3.3686,4.16006 7.69342,7.54509 11.90235,10.55078 4.20893,3.0057 8.32471,5.64397 11.21875,8.04493 2.89404,2.40095 4.20508,4.39365 4.20508,5.72656 l 0,20 5.3164,0 0,-20 c 0,-4.05226 -2.82195,-7.07289 -6.1289,-9.81641 -3.30695,-2.74351 -7.45996,-5.37943 -11.52344,-8.28125 -4.06348,-2.90182 -8.01373,-6.05608 -10.85938,-9.57031 -2.84437,-3.51267 -4.59245,-7.27386 -4.60546,-11.79297 l 0,-0.006 c -1e-5,-0.0102 -0.0643,-86.4999 0,-99.43164 0.003,-0.56596 0.22182,-1.18299 0.96875,-2.06055 0.74692,-0.87755 2.00003,-1.89784 3.60742,-2.93164 3.21477,-2.0676 7.78905,-4.2052 12.45117,-6.53711 4.66212,-2.3319 9.42805,-4.85695 13.20898,-8.02734 3.78094,-3.17039 6.7168,-7.24421 6.7168,-12.27148 0,-9.95889 -10.32031,-14.77344 -10.32031,-14.77344 z"
         style="color:#000000;font-style:normal;font-variant:normal;font-weight:normal;font-stretch:normal;font-size:medium;line-height:normal;font-family:sans-serif;text-indent:0;text-align:start;text-decoration:none;text-decoration-line:none;text-decoration-style:solid;text-decoration-color:#000000;letter-spacing:normal;word-spacing:normal;text-transform:none;direction:ltr;block-progression:tb;writing-mode:lr-tb;baseline-shift:baseline;text-anchor:start;white-space:normal;clip-rule:nonzero;display:inline;overflow:visible;visibility:visible;opacity:1;isolation:auto;mix-blend-mode:normal;color-interpolation:sRGB;color-interpolation-filters:linearRGB;solid-color:#000000;solid-opacity:1;fill:#ff7400;fill-opacity:1;fill-rule:evenodd;stroke:#000000;stroke-width:1;stroke-linecap:butt;stroke-linejoin:miter;stroke-miterlimit:4;stroke-dasharray:none;stroke-dashoffset:0;stroke-opacity:1;color-rendering:auto;image-rendering:auto;shape-rendering:auto;text-rendering:auto;enable-background:accumulate" />
      <path
         inkscape:connector-curvature="0"
         id="path4325"
         d="m -177.33346,346.19268 2.15489,-2.54954 -12.74767,-10.77446 -4.12811,-20.97261 -19.39403,22.94582 21.36724,0.57632 z"
         style="display:inline;fill:#000000;fill-opacity:0.27810651;fill-rule:evenodd;stroke:#000000;stroke-width:0.66764337px;stroke-linecap:butt;stroke-linejoin:miter;stroke-opacity:1" />
    </g>
    <g
       transform="matrix(1.4030946,0,0,1.4030946,1817.7721,-322.56579)"
       id="g4497">
      <path
         style="display:inline;fill:#0000a7;fill-opacity:0.26775148;fill-rule:evenodd;stroke:#000000;stroke-width:1px;stroke-linecap:butt;stroke-linejoin:miter;stroke-opacity:1"
         d="m -242.40581,624.87449 -28,40 0,109.98437 c 35.07993,0.10685 70.05874,0.0363 105.13867,0 l 0,-109.98437 -28,-40 -20,0 -1.95703,10 16.95703,0 23,35 0,95.01562 c -28.37956,0.0315 -56.75911,0.0143 -85.13867,0 l 0,-95.01562 23,-35 16.95703,0 -1.95703,-10 z"
         id="path4499"
         inkscape:connector-curvature="0"
         sodipodi:nodetypes="ccccccccccccccccc" />
      <path
         style="display:inline;fill:#00ffff;fill-opacity:1;fill-rule:evenodd;stroke:#000000;stroke-width:1px;stroke-linecap:butt;stroke-linejoin:miter;stroke-opacity:1"
         d="m -222.30121,614.87536 0,10.01786 1.92219,10 5.03571,0 1.89603,-10 0,-10.01786 -1.95853,-10 -5,0 z"
         id="path4501"
         inkscape:connector-curvature="0"
         sodipodi:nodetypes="ccccccccc" />
      <path
         style="display:inline;fill:#5e00ff;fill-opacity:1;fill-rule:evenodd;stroke:#000000;stroke-width:1px;stroke-linecap:butt;stroke-linejoin:miter;stroke-opacity:1"
         d="m -213.40581,603.87536 8,2 15,0 0,-2 7,0 0,-5 -7,0 0,-2 -15,0 -8,2 z"
         id="path4503"
         inkscape:connector-curvature="0" />
      <path
         style="display:inline;fill:#787878;fill-opacity:0.47058824;fill-rule:evenodd;stroke:#000000;stroke-width:1px;stroke-linecap:butt;stroke-linejoin:miter;stroke-opacity:1"
         d="m -215.40581,596.87536 2,-8 0,-16 -2,-8 -5,0 -2,8 0,16 2,8 z"
         id="path4505"
         inkscape:connector-curvature="0" />
      <path
         style="display:inline;fill:#787878;fill-opacity:0.78431373;fill-rule:evenodd;stroke:#000000;stroke-width:1px;stroke-linecap:butt;stroke-linejoin:miter;stroke-opacity:1"
         d="m -222.40581,613.87536 9,0 0,-8 8,0 0,-9 -8,0 0,-8 -9,0 0,25"
         id="path4507"
         inkscape:connector-curvature="0" />
      <path
         style="display:inline;fill:#ff6600;fill-opacity:0.6760355;fill-rule:evenodd;stroke:#000000;stroke-width:1px;stroke-linecap:butt;stroke-linejoin:miter;stroke-opacity:1"
         d="m -189.40581,596.87536 c 0,0 19.90823,0.1492 29.79093,1.19956 8.70496,0.92519 25.87659,4.48255 25.87659,4.48255 l -1.70463,9 c 0,0 -16.46963,-3.78858 -25.68719,-4.73509 -9.38119,-0.96331 -28.2757,-0.94702 -28.2757,-0.94702 z"
         id="path4509"
         inkscape:connector-curvature="0"
         sodipodi:nodetypes="csccscc" />
      <path
         inkscape:connector-curvature="0"
         id="path4511"
         d="m -215.40581,556.87536 2,-8 0,-16 -2,-8 -5,0 -2,8 0,16 2,8 z"
         style="display:inline;fill:#787878;fill-opacity:0.47058824;fill-rule:evenodd;stroke:#000000;stroke-width:1px;stroke-linecap:butt;stroke-linejoin:miter;stroke-opacity:1" />
      <rect
         style="display:inline;opacity:0.82200012;fill:#00ab00;fill-opacity:1;fill-rule:nonzero;stroke:#000000;stroke-width:1.2159642;stroke-linecap:round;stroke-miterlimit:4;stroke-dasharray:none;stroke-dashoffset:0;stroke-opacity:1"
         id="rect4513"
         width="24.784037"
         height="28.337606"
         x="-230.29782"
         y="505.42975" />
      <rect
         style="display:inline;opacity:0.82200012;fill:#fffc00;fill-opacity:0.6760355;fill-rule:nonzero;stroke:#000000;stroke-width:1;stroke-linecap:round;stroke-miterlimit:4;stroke-dasharray:none;stroke-dashoffset:0;stroke-opacity:1"
         id="rect4515"
         width="10"
         height="160"
         x="-222.90581"
         y="345.3927" />
      <text
         sodipodi:linespacing="125%"
         id="text4517"
         y="526.87885"
         x="-218.00835"
         style="font-style:normal;font-weight:normal;font-size:10px;line-height:125%;font-family:sans-serif;text-align:center;letter-spacing:0px;word-spacing:0px;text-anchor:middle;display:inline;fill:#000000;fill-opacity:1;stroke:none;stroke-width:1px;stroke-linecap:butt;stroke-linejoin:miter;stroke-opacity:1"
         xml:space="preserve"><tspan
           style="font-size:20px"
           y="526.87885"
           x="-218.00835"
           id="tspan4519"
           sodipodi:role="line">S</tspan></text>
      <path
         inkscape:connector-curvature="0"
         id="path4521"
         d="m -181.90581,557.80719 -8,-2 -16,0 -8,2 0,5 8,2 16,0 8,-2 z"
         style="display:inline;fill:#787878;fill-opacity:0.47058824;fill-rule:evenodd;stroke:#000000;stroke-width:1px;stroke-linecap:butt;stroke-linejoin:miter;stroke-opacity:1" />
      <path
         inkscape:connector-curvature="0"
         id="path4523"
         d="m -222.40581,572.82238 9,0 0,-8 8,0 0,-9 -8,0 0,-8 -9,0 0,25"
         style="display:inline;fill:#787878;fill-opacity:0.78431373;fill-rule:evenodd;stroke:#000000;stroke-width:1px;stroke-linecap:butt;stroke-linejoin:miter;stroke-opacity:1" />
      <g
         style="display:inline"
         id="g4525"
         transform="translate(-400.37009,-132.30827)">
        <circle
           r="15"
           cy="692.36218"
           cx="225"
           id="circle4527"
           style="opacity:0.82200012;fill:#d30000;fill-opacity:1;fill-rule:nonzero;stroke:#000000;stroke-width:1;stroke-linecap:round;stroke-miterlimit:4;stroke-dasharray:none;stroke-dashoffset:0;stroke-opacity:1" />
        <text
           sodipodi:linespacing="125%"
           id="text4529"
           y="699.65222"
           x="224.31152"
           style="font-style:normal;font-weight:normal;font-size:10px;line-height:125%;font-family:sans-serif;text-align:center;letter-spacing:0px;word-spacing:0px;text-anchor:middle;fill:#000000;fill-opacity:1;stroke:none;stroke-width:1px;stroke-linecap:butt;stroke-linejoin:miter;stroke-opacity:1"
           xml:space="preserve"><tspan
             style="font-size:20px"
             y="699.65222"
             x="224.31152"
             id="tspan4531"
             sodipodi:role="line">R</tspan></text>
      </g>
      <path
         style="display:inline;fill:none;fill-rule:evenodd;stroke:#000000;stroke-width:1px;stroke-linecap:butt;stroke-linejoin:miter;stroke-opacity:1"
         d="m -175.40581,624.87536 -20,-20"
         id="path4533"
         inkscape:connector-curvature="0" />
      <path
         style="display:inline;fill:none;fill-rule:evenodd;stroke:#000000;stroke-width:1px;stroke-linecap:butt;stroke-linejoin:miter;stroke-opacity:1"
         d="m -270.40581,624.87536 50,-5"
         id="path4535"
         inkscape:connector-curvature="0" />
      <path
         style="color:#000000;font-style:normal;font-variant:normal;font-weight:normal;font-stretch:normal;font-size:medium;line-height:normal;font-family:sans-serif;text-indent:0;text-align:start;text-decoration:none;text-decoration-line:none;text-decoration-style:solid;text-decoration-color:#000000;letter-spacing:normal;word-spacing:normal;text-transform:none;direction:ltr;block-progression:tb;writing-mode:lr-tb;baseline-shift:baseline;text-anchor:start;white-space:normal;clip-rule:nonzero;display:inline;overflow:visible;visibility:visible;opacity:1;isolation:auto;mix-blend-mode:normal;color-interpolation:sRGB;color-interpolation-filters:linearRGB;solid-color:#000000;solid-opacity:1;fill:#ff7400;fill-opacity:1;fill-rule:evenodd;stroke:#000000;stroke-width:1;stroke-linecap:butt;stroke-linejoin:miter;stroke-miterlimit:4;stroke-dasharray:none;stroke-dashoffset:0;stroke-opacity:1;color-rendering:auto;image-rendering:auto;shape-rendering:auto;text-rendering:auto;enable-background:accumulate"
         d="m -179.23198,339.37449 -2.36524,4.75976 c 0,0 7.3711,3.97258 7.3711,10.01368 0,2.98833 -1.67698,5.56674 -4.81641,8.19921 -3.13942,2.63247 -7.60243,5.06016 -12.17187,7.34571 -4.56944,2.28554 -9.23038,4.43047 -12.94922,6.82226 -1.85942,1.1959 -3.49812,2.44983 -4.7793,3.95508 -1.28118,1.50525 -2.22589,3.38014 -2.23633,5.47852 -0.0649,13.0672 0,99.46875 0,99.46875 l 0,0.002 0,0.002 c 0.015,5.923 2.42047,10.9708 5.78906,15.13086 3.3686,4.16006 7.69342,7.54509 11.90235,10.55078 4.20893,3.0057 8.32471,5.64397 11.21875,8.04493 2.89404,2.40095 4.20508,4.39365 4.20508,5.72656 l 0,20 5.3164,0 0,-20 c 0,-4.05226 -2.82195,-7.07289 -6.1289,-9.81641 -3.30695,-2.74351 -7.45996,-5.37943 -11.52344,-8.28125 -4.06348,-2.90182 -8.01373,-6.05608 -10.85938,-9.57031 -2.84437,-3.51267 -4.59245,-7.27386 -4.60546,-11.79297 l 0,-0.006 c -1e-5,-0.0102 -0.0643,-86.4999 0,-99.43164 0.003,-0.56596 0.22182,-1.18299 0.96875,-2.06055 0.74692,-0.87755 2.00003,-1.89784 3.60742,-2.93164 3.21477,-2.0676 7.78905,-4.2052 12.45117,-6.53711 4.66212,-2.3319 9.42805,-4.85695 13.20898,-8.02734 3.78094,-3.17039 6.7168,-7.24421 6.7168,-12.27148 0,-9.95889 -10.32031,-14.77344 -10.32031,-14.77344 z"
         id="path4537"
         inkscape:connector-curvature="0" />
      <path
         style="display:inline;fill:#000000;fill-opacity:0.27810651;fill-rule:evenodd;stroke:#000000;stroke-width:0.66764337px;stroke-linecap:butt;stroke-linejoin:miter;stroke-opacity:1"
         d="m -177.33346,346.19268 2.15489,-2.54954 -12.74767,-10.77446 -4.12811,-20.97261 -19.39403,22.94582 21.36724,0.57632 z"
         id="path4539"
         inkscape:connector-curvature="0" />
    </g>
  </g>
</svg>
