<?xml version="1.0" encoding="UTF-8" standalone="no"?>
<!-- Created with Inkscape (http://www.inkscape.org/) -->

<svg
   xmlns:dc="http://purl.org/dc/elements/1.1/"
   xmlns:cc="http://creativecommons.org/ns#"
   xmlns:rdf="http://www.w3.org/1999/02/22-rdf-syntax-ns#"
   xmlns:svg="http://www.w3.org/2000/svg"
   xmlns="http://www.w3.org/2000/svg"
   xmlns:sodipodi="http://sodipodi.sourceforge.net/DTD/sodipodi-0.dtd"
   xmlns:inkscape="http://www.inkscape.org/namespaces/inkscape"
   width="382.20203mm"
   height="84.822884mm"
   viewBox="0 0 1354.2591 300.55352"
   id="svg2"
   version="1.1"
   inkscape:version="0.91 r13725"
   sodipodi:docname="pong_line.svg">
  <defs
     id="defs4">
    <marker
       inkscape:stockid="Arrow1Send"
       orient="auto"
       refY="0"
       refX="0"
       id="marker6368"
       style="overflow:visible"
       inkscape:isstock="true">
      <path
         id="path6370"
         d="M 0,0 5,-5 -12.5,0 5,5 0,0 Z"
         style="fill:#ff0000;fill-opacity:1;fill-rule:evenodd;stroke:#ff0000;stroke-width:1pt;stroke-opacity:1"
         transform="matrix(-0.2,0,0,-0.2,-1.2,0)"
         inkscape:connector-curvature="0" />
    </marker>
    <marker
       inkscape:stockid="Arrow1Lend"
       orient="auto"
       refY="0"
       refX="0"
       id="Arrow1Lend"
       style="overflow:visible"
       inkscape:isstock="true">
      <path
         id="path4357"
         d="M 0,0 5,-5 -12.5,0 5,5 0,0 Z"
         style="fill:#ff0000;fill-opacity:1;fill-rule:evenodd;stroke:#ff0000;stroke-width:1pt;stroke-opacity:1"
         transform="matrix(-0.8,0,0,-0.8,-10,0)"
         inkscape:connector-curvature="0" />
    </marker>
  </defs>
  <sodipodi:namedview
     id="base"
     pagecolor="#ffffff"
     bordercolor="#666666"
     borderopacity="1.0"
     inkscape:pageopacity="0.0"
     inkscape:pageshadow="2"
     inkscape:zoom="1.4"
     inkscape:cx="678.03076"
     inkscape:cy="225.40533"
     inkscape:document-units="px"
     inkscape:current-layer="layer1"
     showgrid="true"
     inkscape:snap-to-guides="true"
     inkscape:snap-page="true"
     inkscape:snap-grids="true"
     inkscape:window-width="2878"
     inkscape:window-height="1581"
     inkscape:window-x="0"
     inkscape:window-y="37"
     inkscape:window-maximized="1"
     fit-margin-top="10"
     fit-margin-left="10"
     fit-margin-right="10"
     fit-margin-bottom="10">
    <inkscape:grid
       type="xygrid"
       id="grid4136"
       originx="19.691516"
       originy="-240.34399" />
  </sodipodi:namedview>
  <metadata
     id="metadata7">
    <rdf:RDF>
      <cc:Work
         rdf:about="">
        <dc:format>image/svg+xml</dc:format>
        <dc:type
           rdf:resource="http://purl.org/dc/dcmitype/StillImage" />
        <dc:title></dc:title>
      </cc:Work>
    </rdf:RDF>
  </metadata>
  <g
     inkscape:label="Layer 1"
     inkscape:groupmode="layer"
     id="layer1"
     style="display:inline"
     transform="translate(19.691518,-511.4647)">
    <path
       style="fill:#787878;fill-opacity:0.47058824;fill-rule:evenodd;stroke:#000000;stroke-width:1px;stroke-linecap:butt;stroke-linejoin:miter;stroke-opacity:1"
       d="m 158.39514,589.79102 -2,8 0,96 2,8 5,0 2,-8 0,-96 -2,-8 z"
       id="path5188"
       inkscape:connector-curvature="0"
       sodipodi:nodetypes="ccccccccc" />
    <path
       style="fill:#787878;fill-opacity:0.47058824;fill-rule:evenodd;stroke:#000000;stroke-width:1px;stroke-linecap:butt;stroke-linejoin:miter;stroke-opacity:1"
       d="m 437.52649,749.83571 -8,-2 -256,0 -8,2 0,5 8,2 256,0 8,-2 z"
       id="path4220"
       inkscape:connector-curvature="0"
       sodipodi:nodetypes="ccccccccc" />
    <path
       sodipodi:nodetypes="ccccccccc"
       inkscape:connector-curvature="0"
       id="path4230"
       d="m 158.39514,715.79102 -2,8 0,16 2,8 5,0 2,-8 0,-16 -2,-8 z"
       style="fill:#787878;fill-opacity:0.47058824;fill-rule:evenodd;stroke:#000000;stroke-width:1px;stroke-linecap:butt;stroke-linejoin:miter;stroke-opacity:1" />
    <g
       id="g4819"
       transform="matrix(-1,0,0,1,236.7144,23.464284)">
      <path
         inkscape:connector-curvature="0"
         id="path4218"
         d="m 80,731.3622 8,2 15,0 0,-2 7,0 0,-5 -7,0 0,-2 -15,0 -8,2 z"
         style="display:inline;fill:#5e00ff;fill-opacity:1;fill-rule:evenodd;stroke:#000000;stroke-width:1px;stroke-linecap:butt;stroke-linejoin:miter;stroke-opacity:1" />
      <path
         sodipodi:nodetypes="csccscc"
         inkscape:connector-curvature="0"
         id="path4224"
         d="m 104,724.3622 c 0,0 19.90823,0.1492 29.79093,1.19956 8.70496,0.92519 25.87659,4.48255 25.87659,4.48255 l -1.70463,9 c 0,0 -16.46963,-3.78858 -25.68719,-4.73509 C 122.89451,733.34591 104,733.3622 104,733.3622 Z"
         style="display:inline;fill:#ff6600;fill-opacity:0.6760355;fill-rule:evenodd;stroke:#000000;stroke-width:1px;stroke-linecap:butt;stroke-linejoin:miter;stroke-opacity:1" />
    </g>
    <path
       inkscape:connector-curvature="0"
       id="path4222"
       d="m 173.47351,756.83571 0,-9 -8,0 0,-8 -9,0 0,8 -8,0 0,9 25,0"
       style="fill:#787878;fill-opacity:0.78431373;fill-rule:evenodd;stroke:#000000;stroke-width:1px;stroke-linecap:butt;stroke-linejoin:miter;stroke-opacity:1" />
    <rect
       style="display:inline;opacity:0.82200012;fill:#00ab00;fill-opacity:1;fill-rule:nonzero;stroke:#000000;stroke-width:1.2159642;stroke-linecap:round;stroke-miterlimit:4;stroke-dasharray:none;stroke-dashoffset:0;stroke-opacity:1"
       id="rect4234"
       width="24.784037"
       height="28.337606"
       x="148.13843"
       y="694.73511" />
    <path
       sodipodi:nodetypes="ccccccccc"
       inkscape:connector-curvature="0"
       id="path5190"
       d="m 438.39514,589.79102 -2,8 0,96 2,8 5,0 2,-8 0,-96 -2,-8 z"
       style="fill:#787878;fill-opacity:0.47058824;fill-rule:evenodd;stroke:#000000;stroke-width:1px;stroke-linecap:butt;stroke-linejoin:miter;stroke-opacity:1" />
    <path
       sodipodi:nodetypes="ccccccccc"
       inkscape:connector-curvature="0"
       id="path5192"
       d="m 717.52649,749.83571 -8,-2 -256,0 -8,2 0,5 8,2 256,0 8,-2 z"
       style="fill:#787878;fill-opacity:0.47058824;fill-rule:evenodd;stroke:#000000;stroke-width:1px;stroke-linecap:butt;stroke-linejoin:miter;stroke-opacity:1" />
    <path
       style="fill:#787878;fill-opacity:0.47058824;fill-rule:evenodd;stroke:#000000;stroke-width:1px;stroke-linecap:butt;stroke-linejoin:miter;stroke-opacity:1"
       d="m 438.39514,715.79102 -2,8 0,16 2,8 5,0 2,-8 0,-16 -2,-8 z"
       id="path5194"
       inkscape:connector-curvature="0"
       sodipodi:nodetypes="ccccccccc" />
    <path
       style="fill:#787878;fill-opacity:0.78431373;fill-rule:evenodd;stroke:#000000;stroke-width:1px;stroke-linecap:butt;stroke-linejoin:miter;stroke-opacity:1"
       d="m 453.47351,756.83571 0,-9 -8,0 0,-8 -9,0 0,8 -8,0 0,9 25,0"
       id="path5196"
       inkscape:connector-curvature="0" />
    <rect
       y="694.73511"
       x="428.13843"
       height="28.337606"
       width="24.784037"
       id="rect5198"
       style="display:inline;opacity:0.82200012;fill:#00ab00;fill-opacity:1;fill-rule:nonzero;stroke:#000000;stroke-width:1.2159642;stroke-linecap:round;stroke-miterlimit:4;stroke-dasharray:none;stroke-dashoffset:0;stroke-opacity:1" />
    <path
       style="fill:#787878;fill-opacity:0.47058824;fill-rule:evenodd;stroke:#000000;stroke-width:1px;stroke-linecap:butt;stroke-linejoin:miter;stroke-opacity:1"
       d="m 718.39514,589.79102 -2,8 0,96 2,8 5,0 2,-8 0,-96 -2,-8 z"
       id="path5200"
       inkscape:connector-curvature="0"
       sodipodi:nodetypes="ccccccccc" />
    <path
       style="fill:#787878;fill-opacity:0.47058824;fill-rule:evenodd;stroke:#000000;stroke-width:1px;stroke-linecap:butt;stroke-linejoin:miter;stroke-opacity:1"
       d="m 997.52649,749.83571 -8,-2 -256,0 -8,2 0,5 8,2 256,0 8,-2 z"
       id="path5202"
       inkscape:connector-curvature="0"
       sodipodi:nodetypes="ccccccccc" />
    <path
       sodipodi:nodetypes="ccccccccc"
       inkscape:connector-curvature="0"
       id="path5204"
       d="m 718.39514,715.79102 -2,8 0,16 2,8 5,0 2,-8 0,-16 -2,-8 z"
       style="fill:#787878;fill-opacity:0.47058824;fill-rule:evenodd;stroke:#000000;stroke-width:1px;stroke-linecap:butt;stroke-linejoin:miter;stroke-opacity:1" />
    <path
       inkscape:connector-curvature="0"
       id="path5206"
       d="m 733.47351,756.83571 0,-9 -8,0 0,-8 -9,0 0,8 -8,0 0,9 25,0"
       style="fill:#787878;fill-opacity:0.78431373;fill-rule:evenodd;stroke:#000000;stroke-width:1px;stroke-linecap:butt;stroke-linejoin:miter;stroke-opacity:1" />
    <rect
       style="display:inline;opacity:0.82200012;fill:#00ab00;fill-opacity:1;fill-rule:nonzero;stroke:#000000;stroke-width:1.2159642;stroke-linecap:round;stroke-miterlimit:4;stroke-dasharray:none;stroke-dashoffset:0;stroke-opacity:1"
       id="rect5208"
       width="24.784037"
       height="28.337606"
       x="708.13843"
       y="694.73511" />
    <path
       sodipodi:nodetypes="ccccccccc"
       inkscape:connector-curvature="0"
       id="path5210"
       d="m 998.39514,589.79102 -2,8 0,96 2,8 4.99996,0 2,-8 0,-96 -2,-8 z"
       style="fill:#787878;fill-opacity:0.47058824;fill-rule:evenodd;stroke:#000000;stroke-width:1px;stroke-linecap:butt;stroke-linejoin:miter;stroke-opacity:1" />
    <path
       sodipodi:nodetypes="ccccccccc"
       inkscape:connector-curvature="0"
       id="path5212"
       d="m 1277.5265,749.83571 -8,-2 -256,0 -8,2 0,5 8,2 256,0 8,-2 z"
       style="fill:#787878;fill-opacity:0.47058824;fill-rule:evenodd;stroke:#000000;stroke-width:1px;stroke-linecap:butt;stroke-linejoin:miter;stroke-opacity:1" />
    <path
       style="fill:#787878;fill-opacity:0.47058824;fill-rule:evenodd;stroke:#000000;stroke-width:1px;stroke-linecap:butt;stroke-linejoin:miter;stroke-opacity:1"
       d="m 998.39514,715.79102 -2,8 0,16 2,8 4.99996,0 2,-8 0,-16 -2,-8 z"
       id="path5214"
       inkscape:connector-curvature="0"
       sodipodi:nodetypes="ccccccccc" />
    <path
       style="fill:#787878;fill-opacity:0.78431373;fill-rule:evenodd;stroke:#000000;stroke-width:1px;stroke-linecap:butt;stroke-linejoin:miter;stroke-opacity:1"
       d="m 1013.4735,756.83571 0,-9 -8,0 0,-8 -8.99999,0 0,8 -8,0 0,9 24.99999,0"
       id="path5216"
       inkscape:connector-curvature="0" />
    <rect
       y="694.73511"
       x="988.13843"
       height="28.337606"
       width="24.784037"
       id="rect5218"
       style="display:inline;opacity:0.82200012;fill:#00ab00;fill-opacity:1;fill-rule:nonzero;stroke:#000000;stroke-width:1.2159642;stroke-linecap:round;stroke-miterlimit:4;stroke-dasharray:none;stroke-dashoffset:0;stroke-opacity:1" />
    <path
       style="fill:#787878;fill-opacity:0.47058824;fill-rule:evenodd;stroke:#000000;stroke-width:1px;stroke-linecap:butt;stroke-linejoin:miter;stroke-opacity:1"
       d="m 1278.3951,589.79102 -2,8 0,96 2,8 5,0 2,-8 0,-96 -2,-8 z"
       id="path5220"
       inkscape:connector-curvature="0"
       sodipodi:nodetypes="ccccccccc" />
    <path
       sodipodi:nodetypes="ccccccccc"
       inkscape:connector-curvature="0"
       id="path5222"
       d="m 1278.3951,715.79102 -2,8 0,16 2,8 5,0 2,-8 0,-16 -2,-8 z"
       style="fill:#787878;fill-opacity:0.47058824;fill-rule:evenodd;stroke:#000000;stroke-width:1px;stroke-linecap:butt;stroke-linejoin:miter;stroke-opacity:1" />
    <path
       inkscape:connector-curvature="0"
       id="path5224"
       d="m 1285.4735,756.83571 0,-9 0,0 0,-8 -9,0 0,8 -8,0 0,9 17,0"
       style="fill:#787878;fill-opacity:0.78431373;fill-rule:evenodd;stroke:#000000;stroke-width:1px;stroke-linecap:butt;stroke-linejoin:miter;stroke-opacity:1"
       sodipodi:nodetypes="ccccccccc" />
    <rect
       style="display:inline;opacity:0.82200012;fill:#00ab00;fill-opacity:1;fill-rule:nonzero;stroke:#000000;stroke-width:1.2159642;stroke-linecap:round;stroke-miterlimit:4;stroke-dasharray:none;stroke-dashoffset:0;stroke-opacity:1"
       id="rect5226"
       width="24.784037"
       height="28.337606"
       x="1268.1384"
       y="694.73511" />
    <text
       xml:space="preserve"
       style="font-style:normal;font-weight:normal;font-size:10px;line-height:125%;font-family:sans-serif;text-align:start;letter-spacing:0px;word-spacing:0px;text-anchor:start;fill:#000000;fill-opacity:1;stroke:none;stroke-width:1px;stroke-linecap:butt;stroke-linejoin:miter;stroke-opacity:1"
       x="398.57144"
       y="774.50507"
       id="text4823"
       sodipodi:linespacing="125%"><tspan
         sodipodi:role="line"
         x="398.57144"
         y="774.50507"
         id="tspan4827">1/4&quot; BSPT equal T</tspan></text>
    <text
       xml:space="preserve"
       style="font-style:normal;font-weight:normal;font-size:10px;line-height:125%;font-family:sans-serif;text-align:start;letter-spacing:0px;word-spacing:0px;text-anchor:start;fill:#000000;fill-opacity:1;stroke:none;stroke-width:1px;stroke-linecap:butt;stroke-linejoin:miter;stroke-opacity:1"
       x="466.78571"
       y="712.7193"
       id="text4831"
       sodipodi:linespacing="125%"><tspan
         sodipodi:role="line"
         id="tspan4833"
         x="466.78571"
         y="712.7193">2W-025-08 12V solenoid valve</tspan></text>
    <text
       xml:space="preserve"
       style="font-style:normal;font-weight:normal;font-size:10px;line-height:125%;font-family:sans-serif;text-align:start;letter-spacing:0px;word-spacing:0px;text-anchor:start;fill:#000000;fill-opacity:1;stroke:none;stroke-width:1px;stroke-linecap:butt;stroke-linejoin:miter;stroke-opacity:1"
       x="490"
       y="652.36218"
       id="text4835"
       sodipodi:linespacing="125%"><tspan
         sodipodi:role="line"
         id="tspan4837"
         x="490"
         y="652.36218" /></text>
    <text
       xml:space="preserve"
       style="font-style:normal;font-weight:normal;font-size:10px;line-height:125%;font-family:sans-serif;text-align:start;letter-spacing:0px;word-spacing:0px;text-anchor:start;fill:#000000;fill-opacity:1;stroke:none;stroke-width:1px;stroke-linecap:butt;stroke-linejoin:miter;stroke-opacity:1"
       x="14.642859"
       y="712.00507"
       id="text4839"
       sodipodi:linespacing="125%"><tspan
         sodipodi:role="line"
         id="tspan4841"
         x="14.642859"
         y="712.00507">1/4&quot; BSPT hose adapter</tspan></text>
    <text
       xml:space="preserve"
       style="font-style:normal;font-weight:normal;font-size:10px;line-height:125%;font-family:sans-serif;text-align:end;letter-spacing:0px;word-spacing:0px;text-anchor:end;fill:#000000;fill-opacity:1;stroke:none;stroke-width:1px;stroke-linecap:butt;stroke-linejoin:miter;stroke-opacity:1"
       x="67.5"
       y="755.57648"
       id="text4843"
       sodipodi:linespacing="125%"><tspan
         sodipodi:role="line"
         id="tspan4845"
         x="67.5"
         y="755.57648">Supply</tspan><tspan
         sodipodi:role="line"
         x="67.5"
         y="768.07648"
         id="tspan4847">@2-4 bar</tspan></text>
    <text
       xml:space="preserve"
       style="font-style:normal;font-weight:normal;font-size:10px;line-height:125%;font-family:sans-serif;text-align:end;letter-spacing:0px;word-spacing:0px;text-anchor:end;fill:#000000;fill-opacity:1;stroke:none;stroke-width:1px;stroke-linecap:butt;stroke-linejoin:miter;stroke-opacity:1"
       x="1285"
       y="772.36218"
       id="text4849"
       sodipodi:linespacing="125%"><tspan
         sodipodi:role="line"
         id="tspan4851"
         x="1285"
         y="772.36218">1/4&quot; BSPT elbow</tspan></text>
    <path
       style="fill:none;fill-rule:evenodd;stroke:#000000;stroke-width:1px;stroke-linecap:butt;stroke-linejoin:miter;stroke-opacity:1"
       d="M 89.642857,715.21934 135,747.3622"
       id="path4853"
       inkscape:connector-curvature="0"
       sodipodi:nodetypes="cc" />
    <g
       id="g4863"
       transform="translate(-96.25,16.785714)">
      <path
         inkscape:connector-curvature="0"
         id="path4855"
         d="m 244.88449,592.52993 25,0 0,-30 5,0 0,35 -35,0 0,-35 5,0 0,30"
         style="fill:#000080;fill-rule:evenodd;stroke:#000000;stroke-width:1px;stroke-linecap:butt;stroke-linejoin:miter;stroke-opacity:1" />
      <path
         sodipodi:nodetypes="ccc"
         inkscape:connector-curvature="0"
         id="path4859"
         d="m 252.79023,567.29906 -10.79029,0.0631 0,80.92332"
         style="fill:none;fill-rule:evenodd;stroke:#ff0000;stroke-width:1px;stroke-linecap:butt;stroke-linejoin:miter;stroke-opacity:1" />
      <path
         sodipodi:nodetypes="ccccc"
         inkscape:connector-curvature="0"
         id="path4861"
         d="m 243.99994,650.40221 0,-55.04002 28,0 0,-28 -10.1691,0.0631"
         style="fill:none;fill-rule:evenodd;stroke:#ff0000;stroke-width:1px;stroke-linecap:butt;stroke-linejoin:miter;stroke-opacity:1" />
    </g>
    <text
       xml:space="preserve"
       style="font-style:normal;font-weight:normal;font-size:10px;line-height:125%;font-family:sans-serif;text-align:start;letter-spacing:0px;word-spacing:0px;text-anchor:start;fill:#000000;fill-opacity:1;stroke:none;stroke-width:1px;stroke-linecap:butt;stroke-linejoin:miter;stroke-opacity:1"
       x="406.86111"
       y="554.49542"
       id="text4868"
       sodipodi:linespacing="125%"><tspan
         sodipodi:role="line"
         id="tspan4870"
         x="406.86111"
         y="554.49542">Spark Igniter</tspan></text>
    <text
       xml:space="preserve"
       style="font-style:normal;font-weight:normal;font-size:10px;line-height:125%;font-family:sans-serif;text-align:center;letter-spacing:0px;word-spacing:0px;text-anchor:middle;fill:#000000;fill-opacity:1;stroke:none;stroke-width:1px;stroke-linecap:butt;stroke-linejoin:miter;stroke-opacity:1"
       x="486.45593"
       y="587.86078"
       id="text4872"
       sodipodi:linespacing="125%"><tspan
         sodipodi:role="line"
         id="tspan4874"
         x="486.45593"
         y="587.86078"
         style="text-align:start;text-anchor:start">Heat-proof</tspan><tspan
         sodipodi:role="line"
         x="486.45593"
         y="600.36078"
         id="tspan4876"
         style="text-align:start;text-anchor:start">insulated</tspan><tspan
         sodipodi:role="line"
         x="486.45593"
         y="612.86078"
         id="tspan4878"
         style="text-align:start;text-anchor:start">mounting</tspan></text>
    <g
       transform="translate(183.75,16.785714)"
       id="g4880">
      <path
         style="fill:#000080;fill-rule:evenodd;stroke:#000000;stroke-width:1px;stroke-linecap:butt;stroke-linejoin:miter;stroke-opacity:1"
         d="m 244.88449,592.52993 25,0 0,-30 5,0 0,35 -35,0 0,-35 5,0 0,30"
         id="path4882"
         inkscape:connector-curvature="0" />
      <path
         style="fill:none;fill-rule:evenodd;stroke:#ff0000;stroke-width:1px;stroke-linecap:butt;stroke-linejoin:miter;stroke-opacity:1"
         d="m 252.79023,567.29906 -10.79029,0.0631 0,81.19117"
         id="path4884"
         inkscape:connector-curvature="0"
         sodipodi:nodetypes="ccc" />
      <path
         style="fill:none;fill-rule:evenodd;stroke:#ff0000;stroke-width:1px;stroke-linecap:butt;stroke-linejoin:miter;stroke-opacity:1"
         d="m 243.99994,650.49149 0,-55.1293 28,0 0,-28 -10.1691,0.0631"
         id="path4886"
         inkscape:connector-curvature="0"
         sodipodi:nodetypes="ccccc" />
    </g>
    <path
       style="fill:none;fill-rule:evenodd;stroke:#000000;stroke-width:1px;stroke-linecap:butt;stroke-linejoin:miter;stroke-opacity:1"
       d="m 439.87367,557.4377 1.46447,26.81853"
       id="path4888"
       inkscape:connector-curvature="0"
       sodipodi:nodetypes="cc" />
    <path
       style="fill:none;fill-rule:evenodd;stroke:#000000;stroke-width:1px;stroke-linecap:butt;stroke-linejoin:miter;stroke-opacity:1"
       d="m 479.99994,597.36219 -21,4"
       id="path4890"
       inkscape:connector-curvature="0" />
    <g
       id="g4892"
       transform="translate(463.75,16.785714)">
      <path
         inkscape:connector-curvature="0"
         id="path4894"
         d="m 244.88449,592.52993 25,0 0,-30 5,0 0,35 -35,0 0,-35 5,0 0,30"
         style="fill:#000080;fill-rule:evenodd;stroke:#000000;stroke-width:1px;stroke-linecap:butt;stroke-linejoin:miter;stroke-opacity:1" />
      <path
         sodipodi:nodetypes="ccc"
         inkscape:connector-curvature="0"
         id="path4896"
         d="m 252.79023,567.29906 -10.79029,0.0631 0,81.14653"
         style="fill:none;fill-rule:evenodd;stroke:#ff0000;stroke-width:1px;stroke-linecap:butt;stroke-linejoin:miter;stroke-opacity:1" />
      <path
         sodipodi:nodetypes="ccccc"
         inkscape:connector-curvature="0"
         id="path4898"
         d="m 243.99994,650.53614 0,-55.17395 28,0 0,-28 -10.1691,0.0631"
         style="fill:none;fill-rule:evenodd;stroke:#ff0000;stroke-width:1px;stroke-linecap:butt;stroke-linejoin:miter;stroke-opacity:1" />
    </g>
    <g
       transform="translate(743.75,16.785714)"
       id="g4900">
      <path
         style="fill:#000080;fill-rule:evenodd;stroke:#000000;stroke-width:1px;stroke-linecap:butt;stroke-linejoin:miter;stroke-opacity:1"
         d="m 244.88449,592.52993 25,0 0,-30 5,0 0,35 -35,0 0,-35 5,0 0,30"
         id="path4902"
         inkscape:connector-curvature="0" />
      <path
         style="fill:none;fill-rule:evenodd;stroke:#ff0000;stroke-width:1px;stroke-linecap:butt;stroke-linejoin:miter;stroke-opacity:1"
         d="m 252.79023,567.29906 -10.79029,0.0631 0,81.37121"
         id="path4904"
         inkscape:connector-curvature="0"
         sodipodi:nodetypes="ccc" />
      <path
         style="fill:none;fill-rule:evenodd;stroke:#ff0000;stroke-width:1px;stroke-linecap:butt;stroke-linejoin:miter;stroke-opacity:1"
         d="m 243.99994,650.69056 0,-55.32837 28,0 0,-28 -10.1691,0.0631"
         id="path4906"
         inkscape:connector-curvature="0"
         sodipodi:nodetypes="ccccc" />
    </g>
    <g
       id="g4908"
       transform="translate(1023.75,16.785714)">
      <path
         inkscape:connector-curvature="0"
         id="path4910"
         d="m 244.88449,592.52993 25,0 0,-30 5,0 0,35 -35,0 0,-35 5,0 0,30"
         style="fill:#000080;fill-rule:evenodd;stroke:#000000;stroke-width:1px;stroke-linecap:butt;stroke-linejoin:miter;stroke-opacity:1" />
      <path
         sodipodi:nodetypes="ccc"
         inkscape:connector-curvature="0"
         id="path4912"
         d="m 252.79023,567.29906 -10.79029,0.0631 0,81.24494"
         style="fill:none;fill-rule:evenodd;stroke:#ff0000;stroke-width:1px;stroke-linecap:butt;stroke-linejoin:miter;stroke-opacity:1" />
      <path
         sodipodi:nodetypes="ccccc"
         inkscape:connector-curvature="0"
         id="path4914"
         d="m 243.99994,650.69056 0,-55.32837 28,0 0,-28 -10.1691,0.0631"
         style="fill:none;fill-rule:evenodd;stroke:#ff0000;stroke-width:1px;stroke-linecap:butt;stroke-linejoin:miter;stroke-opacity:1" />
    </g>
    <path
       style="fill:none;fill-rule:evenodd;stroke:#ff0000;stroke-width:1px;stroke-linecap:butt;stroke-linejoin:miter;stroke-opacity:1"
       d="m 84.825457,667.36219 1183.280443,0"
       id="path4916"
       inkscape:connector-curvature="0"
       sodipodi:nodetypes="cc" />
    <path
       sodipodi:nodetypes="cc"
       inkscape:connector-curvature="0"
       id="path4918"
       d="m 84.719493,665.36219 1181.386407,0"
       style="fill:none;fill-rule:evenodd;stroke:#ff0000;stroke-width:1px;stroke-linecap:butt;stroke-linejoin:miter;stroke-opacity:1" />
    <text
       xml:space="preserve"
       style="font-style:normal;font-weight:normal;font-size:10px;line-height:125%;font-family:sans-serif;text-align:end;letter-spacing:0px;word-spacing:0px;text-anchor:end;fill:#000000;fill-opacity:1;stroke:none;stroke-width:1px;stroke-linecap:butt;stroke-linejoin:miter;stroke-opacity:1"
       x="80.142799"
       y="662.2193"
       id="text4920"
       sodipodi:linespacing="125%"><tspan
         sodipodi:role="line"
         id="tspan4922"
         x="80.142799"
         y="662.2193">To ignition</tspan><tspan
         sodipodi:role="line"
         x="80.142799"
         y="674.7193"
         id="tspan4924">circuit</tspan></text>
  </g>
</svg>
