<?xml version="1.0" encoding="UTF-8" standalone="no"?>
<!-- Created with Inkscape (http://www.inkscape.org/) -->

<svg
   xmlns:dc="http://purl.org/dc/elements/1.1/"
   xmlns:cc="http://creativecommons.org/ns#"
   xmlns:rdf="http://www.w3.org/1999/02/22-rdf-syntax-ns#"
   xmlns:svg="http://www.w3.org/2000/svg"
   xmlns="http://www.w3.org/2000/svg"
   xmlns:sodipodi="http://sodipodi.sourceforge.net/DTD/sodipodi-0.dtd"
   xmlns:inkscape="http://www.inkscape.org/namespaces/inkscape"
   width="210mm"
   height="297mm"
   viewBox="0 0 744.09448819 1052.3622047"
   id="svg5013"
   version="1.1"
   inkscape:version="0.91 r13725"
   sodipodi:docname="supply.svg">
  <defs
     id="defs5015" />
  <sodipodi:namedview
     id="base"
     pagecolor="#ffffff"
     bordercolor="#666666"
     borderopacity="1.0"
     inkscape:pageopacity="0.0"
     inkscape:pageshadow="2"
     inkscape:zoom="2.8"
     inkscape:cx="240.34485"
     inkscape:cy="458.05908"
     inkscape:document-units="px"
     inkscape:current-layer="layer1"
     showgrid="true"
     inkscape:window-width="2878"
     inkscape:window-height="1581"
     inkscape:window-x="0"
     inkscape:window-y="37"
     inkscape:window-maximized="1">
    <inkscape:grid
       type="xygrid"
       id="grid5603" />
  </sodipodi:namedview>
  <metadata
     id="metadata5018">
    <rdf:RDF>
      <cc:Work
         rdf:about="">
        <dc:format>image/svg+xml</dc:format>
        <dc:type
           rdf:resource="http://purl.org/dc/dcmitype/StillImage" />
        <dc:title></dc:title>
      </cc:Work>
    </rdf:RDF>
  </metadata>
  <g
     inkscape:label="Layer 1"
     inkscape:groupmode="layer"
     id="layer1">
    <path
       style="display:inline;opacity:0.82200012;fill:#ff0000;fill-opacity:0.21404682;fill-rule:nonzero;stroke:#ff0000;stroke-width:1;stroke-linecap:round;stroke-miterlimit:4;stroke-dasharray:none;stroke-dashoffset:0;stroke-opacity:1"
       d="m 248.2194,563.89369 c 0,0 0.29864,3.91641 0.83789,5.73243 -18.41854,10.2204 -30.83789,29.84381 -30.83789,52.48244 l 0,90.3437 c 0,13.1294 4.18885,25.238 11.28906,35.0957 -3.8678,3.6425 -6.28906,8.8037 -6.28906,14.5606 0,11.08 8.92,20 20,20 l 80,0 c 11.08,0 20,-8.92 20,-20 0,-5.7564 -2.42183,-10.9162 -6.28907,-14.5586 7.10103,-9.8581 11.28907,-21.9675 11.28907,-35.0977 l 0,-90.3437 c 0,-22.63863 -12.41936,-42.26204 -30.83789,-52.48244 0.53924,-1.81602 0.83789,-5.73243 0.83789,-5.73243 z"
       id="rect4926"
       inkscape:connector-curvature="0"
       sodipodi:nodetypes="ccsscsssscssccc" />
    <rect
       style="display:inline;opacity:0.82200012;fill:#ff0000;fill-opacity:0.21404682;fill-rule:nonzero;stroke:#ff0000;stroke-width:1.02077258;stroke-linecap:round;stroke-miterlimit:4;stroke-dasharray:none;stroke-dashoffset:0;stroke-opacity:1"
       id="rect4935"
       width="29.979227"
       height="36.494457"
       x="268.2298"
       y="527.03137"
       ry="0" />
    <g
       id="g4947"
       transform="translate(49.066752,-394.45739)"
       style="display:inline">
      <path
         sodipodi:nodetypes="ccccccccccccc"
         inkscape:connector-curvature="0"
         id="path4939"
         d="m 230,942.36222 0,-5 c 0,0 -0.0446,-4.95536 10,-5 l 0,-2 9.97859,0 0.0214,-5.05357 5.00893,0 0,29.0625 -5.00893,0 0,-4.9933 -10,0 0,-2.01563 c -9.95536,0 -9.99999,-5 -9.99999,-5 z"
         style="fill:#ffff00;fill-rule:evenodd;stroke:#000000;stroke-width:1px;stroke-linecap:butt;stroke-linejoin:miter;stroke-opacity:1" />
      <path
         sodipodi:nodetypes="cccccccccccccccccccccccccc"
         inkscape:connector-curvature="0"
         id="path4943"
         d="m 255,935.27878 3,0 0,0.0834 1,0 1,-3 1,-2 2,0 3,-1 0,-17 17,0 0,17 3,1 2,0 0,4.75 3.125,-0.0134 0,9.48214 -3.125,0.0312 0,4.75 -11.35714,0 0,2 -4.02679,0 0,-2 -10.61607,0 -2,-4.60089 -5,0 0,-9.48255"
         style="fill:#ff0000;fill-rule:evenodd;stroke:#000000;stroke-width:1px;stroke-linecap:butt;stroke-linejoin:miter;stroke-opacity:1" />
      <rect
         y="906.36224"
         x="265"
         height="5"
         width="19"
         id="rect4945"
         style="opacity:0.82200012;fill:#0000ff;fill-opacity:0.70943951;fill-rule:nonzero;stroke:#000000;stroke-width:1;stroke-linecap:round;stroke-miterlimit:4;stroke-dasharray:none;stroke-dashoffset:0;stroke-opacity:1" />
    </g>
    <text
       xml:space="preserve"
       style="font-style:normal;font-weight:normal;font-size:10px;line-height:125%;font-family:sans-serif;text-align:center;letter-spacing:0px;word-spacing:0px;text-anchor:middle;display:inline;fill:#000000;fill-opacity:1;stroke:none;stroke-width:1px;stroke-linecap:butt;stroke-linejoin:miter;stroke-opacity:1"
       x="291.25522"
       y="549.25049"
       id="text4952"
       sodipodi:linespacing="125%"><tspan
         sodipodi:role="line"
         id="tspan4954"
         x="291.25522"
         y="549.25049">POL</tspan></text>
    <text
       xml:space="preserve"
       style="font-style:normal;font-weight:normal;font-size:10px;line-height:125%;font-family:sans-serif;text-align:center;letter-spacing:0px;word-spacing:0px;text-anchor:middle;display:inline;fill:#000000;fill-opacity:1;stroke:none;stroke-width:1px;stroke-linecap:butt;stroke-linejoin:miter;stroke-opacity:1"
       x="295.57849"
       y="478.28494"
       id="text4956"
       sodipodi:linespacing="125%"><tspan
         sodipodi:role="line"
         x="295.57849"
         y="478.28494"
         id="tspan4960"
         style="text-align:end;text-anchor:end">Silverline 196559</tspan><tspan
         sodipodi:role="line"
         x="295.57849"
         y="490.78494"
         id="tspan4964"
         style="text-align:end;text-anchor:end">0.5 to 4 bar regulator</tspan><tspan
         sodipodi:role="line"
         x="295.57849"
         y="503.28494"
         id="tspan4966"
         style="text-align:end;text-anchor:end">&lt; 8kg/hr flow</tspan></text>
    <rect
       style="display:inline;opacity:0.82200012;fill:#ffff00;fill-opacity:0.70943951;fill-rule:nonzero;stroke:#000000;stroke-width:1;stroke-linecap:round;stroke-miterlimit:4;stroke-dasharray:none;stroke-dashoffset:0;stroke-opacity:1"
       id="rect4968"
       width="40"
       height="15"
       x="340.00522"
       y="538.53619" />
    <path
       style="display:inline;fill:none;fill-rule:evenodd;stroke:#000000;stroke-width:1px;stroke-linecap:butt;stroke-linejoin:miter;stroke-opacity:1"
       d="m 295.00522,508.53619 25,35"
       id="path4970"
       inkscape:connector-curvature="0" />
    <text
       xml:space="preserve"
       style="font-style:normal;font-weight:normal;font-size:10px;line-height:125%;font-family:sans-serif;text-align:start;letter-spacing:0px;word-spacing:0px;text-anchor:start;display:inline;fill:#000000;fill-opacity:1;stroke:none;stroke-width:1px;stroke-linecap:butt;stroke-linejoin:miter;stroke-opacity:1"
       x="346.26791"
       y="487.67838"
       id="text4972"
       sodipodi:linespacing="125%"><tspan
         sodipodi:role="line"
         id="tspan4974"
         x="346.26791"
         y="487.67838">hi.lo DGN 443567</tspan><tspan
         sodipodi:role="line"
         x="346.26791"
         y="500.17838"
         id="tspan4976">flashback</tspan><tspan
         sodipodi:role="line"
         x="346.26791"
         y="512.67834"
         id="tspan4978">arrestor</tspan></text>
    <path
       style="display:inline;fill:none;fill-rule:evenodd;stroke:#000000;stroke-width:1px;stroke-linecap:butt;stroke-linejoin:miter;stroke-opacity:1"
       d="m 365.00522,518.53619 -5,25"
       id="path4980"
       inkscape:connector-curvature="0" />
  </g>
</svg>
